<mxfile host="65bd71144e">
    <diagram id="DT52jx-p1epTQN54pfV6" name="Page-1">
        <mxGraphModel dx="1010" dy="671" grid="1" gridSize="10" guides="1" tooltips="1" connect="1" arrows="1" fold="1" page="1" pageScale="1" pageWidth="850" pageHeight="1100" math="0" shadow="0">
            <root>
                <mxCell id="0"/>
                <mxCell id="1" parent="0"/>
                <mxCell id="2" value="" style="rounded=0;whiteSpace=wrap;html=1;fillColor=#FFFFFF;strokeColor=#82b366;" parent="1" vertex="1">
                    <mxGeometry x="40" y="40" width="640" height="2590" as="geometry"/>
                </mxCell>
                <mxCell id="3" value="" style="rounded=0;whiteSpace=wrap;html=1;fillColor=#d5e8d4;strokeColor=#82b366;" parent="1" vertex="1">
                    <mxGeometry x="40" y="40" width="640" height="2590" as="geometry"/>
                </mxCell>
                <mxCell id="4" value="&lt;b&gt;&lt;font style=&quot;font-size: 14px;&quot; color=&quot;#000000&quot;&gt;General&lt;/font&gt;&lt;/b&gt;" style="rounded=1;whiteSpace=wrap;html=1;fillColor=#CCCCCC;strokeColor=#000000;arcSize=0;" parent="1" vertex="1">
                    <mxGeometry x="70" y="70" width="280" height="30" as="geometry"/>
                </mxCell>
                <mxCell id="5" value="&lt;b&gt;Attributes&lt;/b&gt;" style="rounded=1;whiteSpace=wrap;html=1;fillColor=#CCCCCC;strokeColor=#000000;fontColor=#000000;arcSize=0;" parent="1" vertex="1">
                    <mxGeometry x="70" y="420" width="580" height="30" as="geometry"/>
                </mxCell>
                <mxCell id="6" value="&lt;b&gt;&lt;font color=&quot;#000000&quot;&gt;Divinity Line&lt;/font&gt;&lt;/b&gt;" style="rounded=1;whiteSpace=wrap;html=1;fillColor=#CCCCCC;strokeColor=#000000;arcSize=0;" parent="1" vertex="1">
                    <mxGeometry x="370" y="70" width="280" height="30" as="geometry"/>
                </mxCell>
                <mxCell id="7" value="&lt;font style=&quot;font-size: 14px;&quot; color=&quot;#000000&quot;&gt;Janina M. Leonandra&lt;/font&gt;" style="shape=partialRectangle;whiteSpace=wrap;html=1;bottom=1;right=1;left=1;top=0;fillColor=#FFFFFF;routingCenterX=-0.5;shadow=0;comic=0;strokeColor=#000000;fontSize=17;" parent="1" vertex="1">
                    <mxGeometry x="70" y="129" width="280" height="30" as="geometry"/>
                </mxCell>
                <mxCell id="8" value="&lt;font size=&quot;1&quot; style=&quot;&quot; color=&quot;#000000&quot;&gt;&lt;b style=&quot;font-size: 12px;&quot;&gt;Name&lt;/b&gt;&lt;/font&gt;" style="shape=partialRectangle;whiteSpace=wrap;html=1;bottom=1;right=1;left=1;top=0;fillColor=#FFFFFF;routingCenterX=-0.5;shadow=0;comic=0;strokeColor=#000000;fontSize=17;direction=west;" parent="1" vertex="1">
                    <mxGeometry x="70" y="100" width="280" height="30" as="geometry"/>
                </mxCell>
                <mxCell id="9" value="" style="line;strokeWidth=1;html=1;shadow=0;comic=0;strokeColor=#000000;fontSize=17;fillColor=#FFFFFF;" parent="1" vertex="1">
                    <mxGeometry x="120" y="130" width="190" height="1" as="geometry"/>
                </mxCell>
                <mxCell id="10" value="&lt;font style=&quot;font-size: 14px;&quot; color=&quot;#000000&quot;&gt;-&lt;/font&gt;" style="shape=partialRectangle;whiteSpace=wrap;html=1;bottom=1;right=1;left=1;top=0;fillColor=#FFFFFF;routingCenterX=-0.5;shadow=0;comic=0;strokeColor=#000000;fontSize=17;" parent="1" vertex="1">
                    <mxGeometry x="370" y="129" width="280" height="30" as="geometry"/>
                </mxCell>
                <mxCell id="11" value="&lt;font size=&quot;1&quot; style=&quot;&quot; color=&quot;#000000&quot;&gt;&lt;b style=&quot;font-size: 12px;&quot;&gt;&lt;i&gt;Locked&lt;/i&gt;&lt;/b&gt;&lt;/font&gt;" style="shape=partialRectangle;whiteSpace=wrap;html=1;bottom=1;right=1;left=1;top=0;fillColor=#FFFFFF;routingCenterX=-0.5;shadow=0;comic=0;strokeColor=#000000;fontSize=17;direction=west;" parent="1" vertex="1">
                    <mxGeometry x="370" y="100" width="280" height="30" as="geometry"/>
                </mxCell>
                <mxCell id="12" value="" style="line;strokeWidth=1;html=1;shadow=0;comic=0;strokeColor=#000000;fontSize=17;fillColor=#FFFFFF;" parent="1" vertex="1">
                    <mxGeometry x="440" y="130" width="140" height="1" as="geometry"/>
                </mxCell>
                <mxCell id="13" value="&lt;font style=&quot;font-size: 14px;&quot; color=&quot;#000000&quot;&gt;142&lt;/font&gt;" style="shape=partialRectangle;whiteSpace=wrap;html=1;bottom=1;right=1;left=1;top=0;fillColor=#FFFFFF;routingCenterX=-0.5;shadow=0;comic=0;strokeColor=#000000;fontSize=17;" parent="1" vertex="1">
                    <mxGeometry x="70" y="188" width="280" height="30" as="geometry"/>
                </mxCell>
                <mxCell id="14" value="&lt;font size=&quot;1&quot; style=&quot;&quot; color=&quot;#000000&quot;&gt;&lt;b style=&quot;font-size: 12px;&quot;&gt;Level&lt;/b&gt;&lt;/font&gt;" style="shape=partialRectangle;whiteSpace=wrap;html=1;bottom=1;right=1;left=1;top=0;fillColor=#FFFFFF;routingCenterX=-0.5;shadow=0;comic=0;strokeColor=#000000;fontSize=17;direction=west;" parent="1" vertex="1">
                    <mxGeometry x="70" y="159" width="280" height="30" as="geometry"/>
                </mxCell>
                <mxCell id="15" value="" style="line;strokeWidth=1;html=1;shadow=0;comic=0;strokeColor=#000000;fontSize=17;fillColor=#FFFFFF;" parent="1" vertex="1">
                    <mxGeometry x="120" y="189" width="190" height="1" as="geometry"/>
                </mxCell>
                <mxCell id="16" value="23,400" style="shape=partialRectangle;whiteSpace=wrap;html=1;bottom=1;right=1;left=1;top=0;fillColor=#FFFFFF;routingCenterX=-0.5;shadow=0;comic=0;strokeColor=#000000;strokeWidth=1;fontSize=14;fontColor=#000000;" parent="1" vertex="1">
                    <mxGeometry x="210" y="247" width="140" height="30" as="geometry"/>
                </mxCell>
                <mxCell id="17" value="23,336" style="shape=partialRectangle;whiteSpace=wrap;html=1;bottom=1;right=1;left=1;top=0;fillColor=#FFFFFF;routingCenterX=-0.5;shadow=0;comic=0;strokeColor=#000000;strokeWidth=1;fontSize=14;fontColor=#000000;" parent="1" vertex="1">
                    <mxGeometry x="70" y="247" width="140" height="30" as="geometry"/>
                </mxCell>
                <mxCell id="18" value="" style="line;strokeWidth=1;html=1;shadow=0;comic=0;strokeColor=#000000;fontSize=17;fillColor=#FFFFFF;" parent="1" vertex="1">
                    <mxGeometry x="120" y="248" width="190" height="1" as="geometry"/>
                </mxCell>
                <mxCell id="19" value="&lt;font size=&quot;1&quot; style=&quot;&quot; color=&quot;#000000&quot;&gt;&lt;b style=&quot;font-size: 12px;&quot;&gt;Experience&lt;/b&gt;&lt;/font&gt;" style="shape=partialRectangle;whiteSpace=wrap;html=1;bottom=1;right=1;left=1;top=0;fillColor=#FFFFFF;routingCenterX=-0.5;shadow=0;comic=0;strokeColor=#000000;fontSize=17;direction=west;" parent="1" vertex="1">
                    <mxGeometry x="70" y="218" width="280" height="30" as="geometry"/>
                </mxCell>
                <mxCell id="20" value="180" style="shape=partialRectangle;whiteSpace=wrap;html=1;bottom=1;right=1;left=1;top=0;fillColor=#FFFFFF;routingCenterX=-0.5;shadow=0;comic=0;strokeColor=#000000;strokeWidth=1;fontSize=14;fontColor=#000000;" parent="1" vertex="1">
                    <mxGeometry x="210" y="306" width="140" height="30" as="geometry"/>
                </mxCell>
                <mxCell id="21" value="180" style="shape=partialRectangle;whiteSpace=wrap;html=1;bottom=1;right=1;left=1;top=0;fillColor=#FFFFFF;routingCenterX=-0.5;shadow=0;comic=0;strokeColor=#000000;strokeWidth=1;fontSize=14;fontColor=#000000;" parent="1" vertex="1">
                    <mxGeometry x="70" y="306" width="140" height="30" as="geometry"/>
                </mxCell>
                <mxCell id="22" value="" style="line;strokeWidth=1;html=1;shadow=0;comic=0;strokeColor=#000000;fontSize=17;fillColor=#FFFFFF;" parent="1" vertex="1">
                    <mxGeometry x="120" y="307" width="190" height="1" as="geometry"/>
                </mxCell>
                <mxCell id="23" value="&lt;font size=&quot;1&quot; style=&quot;&quot; color=&quot;#000000&quot;&gt;&lt;b style=&quot;font-size: 12px;&quot;&gt;Health Points&lt;/b&gt;&lt;/font&gt;" style="shape=partialRectangle;whiteSpace=wrap;html=1;bottom=1;right=1;left=1;top=0;fillColor=#FFFFFF;routingCenterX=-0.5;shadow=0;comic=0;strokeColor=#000000;fontSize=17;direction=west;" parent="1" vertex="1">
                    <mxGeometry x="70" y="277" width="280" height="30" as="geometry"/>
                </mxCell>
                <mxCell id="24" value="130" style="shape=partialRectangle;whiteSpace=wrap;html=1;bottom=1;right=1;left=1;top=0;fillColor=#FFFFFF;routingCenterX=-0.5;shadow=0;comic=0;strokeColor=#000000;strokeWidth=1;fontSize=14;fontColor=#000000;" parent="1" vertex="1">
                    <mxGeometry x="210" y="365" width="140" height="30" as="geometry"/>
                </mxCell>
                <mxCell id="25" value="130" style="shape=partialRectangle;whiteSpace=wrap;html=1;bottom=1;right=1;left=1;top=0;fillColor=#FFFFFF;routingCenterX=-0.5;shadow=0;comic=0;strokeColor=#000000;strokeWidth=1;fontSize=14;fontColor=#000000;" parent="1" vertex="1">
                    <mxGeometry x="70" y="365" width="140" height="30" as="geometry"/>
                </mxCell>
                <mxCell id="26" value="" style="line;strokeWidth=1;html=1;shadow=0;comic=0;strokeColor=#000000;fontSize=17;fillColor=#FFFFFF;" parent="1" vertex="1">
                    <mxGeometry x="110" y="366" width="200" height="1" as="geometry"/>
                </mxCell>
                <mxCell id="27" value="&lt;font size=&quot;1&quot; style=&quot;&quot; color=&quot;#000000&quot;&gt;&lt;b style=&quot;font-size: 12px;&quot;&gt;Mana Points&lt;/b&gt;&lt;/font&gt;" style="shape=partialRectangle;whiteSpace=wrap;html=1;bottom=1;right=1;left=1;top=0;fillColor=#FFFFFF;routingCenterX=-0.5;shadow=0;comic=0;strokeColor=#000000;fontSize=17;direction=west;" parent="1" vertex="1">
                    <mxGeometry x="70" y="336" width="280" height="30" as="geometry"/>
                </mxCell>
                <mxCell id="28" value="-" style="shape=partialRectangle;whiteSpace=wrap;html=1;bottom=1;right=1;left=1;top=0;fillColor=#FFFFFF;routingCenterX=-0.5;shadow=0;comic=0;strokeColor=#000000;strokeWidth=1;fontSize=14;fontColor=#000000;" parent="1" vertex="1">
                    <mxGeometry x="600" y="246" width="50" height="30" as="geometry"/>
                </mxCell>
                <mxCell id="29" value="-" style="shape=partialRectangle;whiteSpace=wrap;html=1;bottom=1;right=1;left=1;top=0;fillColor=#FFFFFF;routingCenterX=-0.5;shadow=0;comic=0;strokeColor=#000000;strokeWidth=1;fontSize=14;fontColor=#000000;" parent="1" vertex="1">
                    <mxGeometry x="370" y="246" width="230" height="30" as="geometry"/>
                </mxCell>
                <mxCell id="30" value="&lt;font size=&quot;1&quot; style=&quot;&quot; color=&quot;#000000&quot;&gt;&lt;b style=&quot;font-size: 12px;&quot;&gt;&lt;i&gt;Locked&lt;/i&gt;&lt;/b&gt;&lt;/font&gt;" style="shape=partialRectangle;whiteSpace=wrap;html=1;bottom=1;right=1;left=1;top=0;fillColor=#FFFFFF;routingCenterX=-0.5;shadow=0;comic=0;strokeColor=#000000;fontSize=17;direction=west;" parent="1" vertex="1">
                    <mxGeometry x="370" y="217" width="280" height="30" as="geometry"/>
                </mxCell>
                <mxCell id="484" value="" style="edgeStyle=none;html=1;" parent="1" source="31" target="40" edge="1">
                    <mxGeometry relative="1" as="geometry"/>
                </mxCell>
                <mxCell id="31" value="" style="line;strokeWidth=1;html=1;shadow=0;comic=0;strokeColor=#000000;fontSize=17;fillColor=#FFFFFF;" parent="1" vertex="1">
                    <mxGeometry x="390" y="247" width="240" height="1" as="geometry"/>
                </mxCell>
                <mxCell id="32" value="-" style="shape=partialRectangle;whiteSpace=wrap;html=1;bottom=1;right=1;left=1;top=0;fillColor=#FFFFFF;routingCenterX=-0.5;shadow=0;comic=0;strokeColor=#000000;strokeWidth=1;fontSize=14;fontColor=#000000;" parent="1" vertex="1">
                    <mxGeometry x="600" y="305" width="50" height="30" as="geometry"/>
                </mxCell>
                <mxCell id="33" value="-" style="shape=partialRectangle;whiteSpace=wrap;html=1;bottom=1;right=1;left=1;top=0;fillColor=#FFFFFF;routingCenterX=-0.5;shadow=0;comic=0;strokeColor=#000000;strokeWidth=1;fontSize=14;fontColor=#000000;" parent="1" vertex="1">
                    <mxGeometry x="370" y="305" width="230" height="30" as="geometry"/>
                </mxCell>
                <mxCell id="34" value="&lt;font size=&quot;1&quot; style=&quot;&quot; color=&quot;#000000&quot;&gt;&lt;b style=&quot;font-size: 12px;&quot;&gt;&lt;i&gt;Locked&lt;/i&gt;&lt;/b&gt;&lt;/font&gt;" style="shape=partialRectangle;whiteSpace=wrap;html=1;bottom=1;right=1;left=1;top=0;fillColor=#FFFFFF;routingCenterX=-0.5;shadow=0;comic=0;strokeColor=#000000;fontSize=17;direction=west;" parent="1" vertex="1">
                    <mxGeometry x="370" y="276" width="280" height="30" as="geometry"/>
                </mxCell>
                <mxCell id="35" value="" style="line;strokeWidth=1;html=1;shadow=0;comic=0;strokeColor=#000000;fontSize=17;fillColor=#FFFFFF;" parent="1" vertex="1">
                    <mxGeometry x="390" y="306" width="240" height="1" as="geometry"/>
                </mxCell>
                <mxCell id="36" value="-" style="shape=partialRectangle;whiteSpace=wrap;html=1;bottom=1;right=1;left=1;top=0;fillColor=#FFFFFF;routingCenterX=-0.5;shadow=0;comic=0;strokeColor=#000000;strokeWidth=1;fontSize=14;fontColor=#000000;" parent="1" vertex="1">
                    <mxGeometry x="600" y="364" width="50" height="30" as="geometry"/>
                </mxCell>
                <mxCell id="37" value="-" style="shape=partialRectangle;whiteSpace=wrap;html=1;bottom=1;right=1;left=1;top=0;fillColor=#FFFFFF;routingCenterX=-0.5;shadow=0;comic=0;strokeColor=#000000;strokeWidth=1;fontSize=14;fontColor=#000000;" parent="1" vertex="1">
                    <mxGeometry x="370" y="364" width="230" height="30" as="geometry"/>
                </mxCell>
                <mxCell id="38" value="&lt;font size=&quot;1&quot; style=&quot;&quot; color=&quot;#000000&quot;&gt;&lt;b style=&quot;font-size: 12px;&quot;&gt;&lt;i&gt;Locked&lt;/i&gt;&lt;/b&gt;&lt;/font&gt;" style="shape=partialRectangle;whiteSpace=wrap;html=1;bottom=1;right=1;left=1;top=0;fillColor=#FFFFFF;routingCenterX=-0.5;shadow=0;comic=0;strokeColor=#000000;fontSize=17;direction=west;" parent="1" vertex="1">
                    <mxGeometry x="370" y="335" width="280" height="30" as="geometry"/>
                </mxCell>
                <mxCell id="39" value="" style="line;strokeWidth=1;html=1;shadow=0;comic=0;strokeColor=#000000;fontSize=17;fillColor=#FFFFFF;" parent="1" vertex="1">
                    <mxGeometry x="390" y="365" width="240" height="1" as="geometry"/>
                </mxCell>
                <mxCell id="40" value="&lt;b&gt;&lt;font color=&quot;#000000&quot;&gt;Mystic Skills&lt;/font&gt;&lt;/b&gt;" style="rounded=1;whiteSpace=wrap;html=1;fillColor=#CCCCCC;strokeColor=#000000;arcSize=0;" parent="1" vertex="1">
                    <mxGeometry x="370" y="187" width="280" height="30" as="geometry"/>
                </mxCell>
                <mxCell id="50" value="&lt;font style=&quot;font-size: 14px;&quot; color=&quot;#000000&quot;&gt;42&lt;/font&gt;" style="shape=partialRectangle;whiteSpace=wrap;html=1;bottom=1;right=1;left=1;top=0;fillColor=#FFFFFF;routingCenterX=-0.5;shadow=0;comic=0;strokeColor=#000000;fontSize=17;" parent="1" vertex="1">
                    <mxGeometry x="360" y="479" width="290" height="30" as="geometry"/>
                </mxCell>
                <mxCell id="51" value="&lt;font color=&quot;#000000&quot;&gt;&lt;span style=&quot;font-size: 12px;&quot;&gt;&lt;b&gt;Perception&lt;/b&gt;&lt;/span&gt;&lt;/font&gt;" style="shape=partialRectangle;whiteSpace=wrap;html=1;bottom=1;right=1;left=1;top=0;fillColor=#FFFFFF;routingCenterX=-0.5;shadow=0;comic=0;strokeColor=#000000;fontSize=17;direction=west;gradientColor=none;gradientDirection=west;" parent="1" vertex="1">
                    <mxGeometry x="360" y="450" width="290" height="30" as="geometry"/>
                </mxCell>
                <mxCell id="52" value="" style="line;strokeWidth=1;html=1;shadow=0;comic=0;strokeColor=#000000;fontSize=17;fillColor=#FFFFFF;" parent="1" vertex="1">
                    <mxGeometry x="400" y="480" width="210" height="1" as="geometry"/>
                </mxCell>
                <mxCell id="77" value="&lt;b&gt;Skills&lt;/b&gt;" style="rounded=1;whiteSpace=wrap;html=1;fillColor=#CCCCCC;strokeColor=#000000;fontColor=#000000;arcSize=0;" parent="1" vertex="1">
                    <mxGeometry x="70" y="830" width="580" height="30" as="geometry"/>
                </mxCell>
                <mxCell id="485" value="&lt;font style=&quot;font-size: 14px;&quot; color=&quot;#000000&quot;&gt;8&lt;/font&gt;" style="shape=partialRectangle;whiteSpace=wrap;html=1;bottom=1;right=1;left=1;top=0;fillColor=#FFFFFF;routingCenterX=-0.5;shadow=0;comic=0;strokeColor=#000000;fontSize=17;" parent="1" vertex="1">
                    <mxGeometry x="70" y="479" width="290" height="30" as="geometry"/>
                </mxCell>
                <mxCell id="486" value="&lt;font size=&quot;1&quot; style=&quot;&quot; color=&quot;#000000&quot;&gt;&lt;b style=&quot;font-size: 12px;&quot;&gt;Strength&lt;/b&gt;&lt;/font&gt;" style="shape=partialRectangle;whiteSpace=wrap;html=1;bottom=1;right=1;left=1;top=0;fillColor=#FFFFFF;routingCenterX=-0.5;shadow=0;comic=0;strokeColor=#000000;fontSize=17;direction=west;gradientColor=none;gradientDirection=west;" parent="1" vertex="1">
                    <mxGeometry x="70" y="450" width="290" height="30" as="geometry"/>
                </mxCell>
                <mxCell id="487" value="" style="line;strokeWidth=1;html=1;shadow=0;comic=0;strokeColor=#000000;fontSize=17;fillColor=#FFFFFF;" parent="1" vertex="1">
                    <mxGeometry x="110" y="480" width="210" height="1" as="geometry"/>
                </mxCell>
                <mxCell id="488" value="&lt;font style=&quot;font-size: 14px;&quot; color=&quot;#000000&quot;&gt;13&lt;/font&gt;" style="shape=partialRectangle;whiteSpace=wrap;html=1;bottom=1;right=1;left=1;top=0;fillColor=#FFFFFF;routingCenterX=-0.5;shadow=0;comic=0;strokeColor=#000000;fontSize=17;" parent="1" vertex="1">
                    <mxGeometry x="360" y="538" width="290" height="30" as="geometry"/>
                </mxCell>
                <mxCell id="489" value="&lt;font size=&quot;1&quot; style=&quot;&quot; color=&quot;#000000&quot;&gt;&lt;b style=&quot;font-size: 12px;&quot;&gt;Intelligence&lt;/b&gt;&lt;/font&gt;" style="shape=partialRectangle;whiteSpace=wrap;html=1;bottom=1;right=1;left=1;top=0;fillColor=#FFFFFF;routingCenterX=-0.5;shadow=0;comic=0;strokeColor=#000000;fontSize=17;direction=west;gradientColor=none;gradientDirection=west;" parent="1" vertex="1">
                    <mxGeometry x="360" y="509" width="290" height="30" as="geometry"/>
                </mxCell>
                <mxCell id="490" value="" style="line;strokeWidth=1;html=1;shadow=0;comic=0;strokeColor=#000000;fontSize=17;fillColor=#FFFFFF;" parent="1" vertex="1">
                    <mxGeometry x="400" y="539" width="210" height="1" as="geometry"/>
                </mxCell>
                <mxCell id="491" value="&lt;font style=&quot;font-size: 14px;&quot; color=&quot;#000000&quot;&gt;17&lt;/font&gt;" style="shape=partialRectangle;whiteSpace=wrap;html=1;bottom=1;right=1;left=1;top=0;fillColor=#FFFFFF;routingCenterX=-0.5;shadow=0;comic=0;strokeColor=#000000;fontSize=17;" parent="1" vertex="1">
                    <mxGeometry x="70" y="538" width="290" height="30" as="geometry"/>
                </mxCell>
                <mxCell id="492" value="&lt;font size=&quot;1&quot; style=&quot;&quot; color=&quot;#000000&quot;&gt;&lt;b style=&quot;font-size: 12px;&quot;&gt;Dexterity&lt;/b&gt;&lt;/font&gt;" style="shape=partialRectangle;whiteSpace=wrap;html=1;bottom=1;right=1;left=1;top=0;fillColor=#FFFFFF;routingCenterX=-0.5;shadow=0;comic=0;strokeColor=#000000;fontSize=17;direction=west;gradientColor=none;gradientDirection=west;" parent="1" vertex="1">
                    <mxGeometry x="70" y="509" width="290" height="30" as="geometry"/>
                </mxCell>
                <mxCell id="493" value="" style="line;strokeWidth=1;html=1;shadow=0;comic=0;strokeColor=#000000;fontSize=17;fillColor=#FFFFFF;" parent="1" vertex="1">
                    <mxGeometry x="110" y="539" width="210" height="1" as="geometry"/>
                </mxCell>
                <mxCell id="494" value="&lt;font style=&quot;font-size: 14px;&quot; color=&quot;#000000&quot;&gt;Locked&lt;/font&gt;" style="shape=partialRectangle;whiteSpace=wrap;html=1;bottom=1;right=1;left=1;top=0;fillColor=#FFFFFF;routingCenterX=-0.5;shadow=0;comic=0;strokeColor=#000000;fontSize=17;" parent="1" vertex="1">
                    <mxGeometry x="360" y="597" width="290" height="30" as="geometry"/>
                </mxCell>
                <mxCell id="495" value="&lt;font size=&quot;1&quot; style=&quot;&quot; color=&quot;#000000&quot;&gt;&lt;b style=&quot;font-size: 12px;&quot;&gt;Essence&lt;/b&gt;&lt;/font&gt;" style="shape=partialRectangle;whiteSpace=wrap;html=1;bottom=1;right=1;left=1;top=0;fillColor=#FFFFFF;routingCenterX=-0.5;shadow=0;comic=0;strokeColor=#000000;fontSize=17;direction=west;gradientColor=none;gradientDirection=west;" parent="1" vertex="1">
                    <mxGeometry x="360" y="568" width="290" height="30" as="geometry"/>
                </mxCell>
                <mxCell id="496" value="" style="line;strokeWidth=1;html=1;shadow=0;comic=0;strokeColor=#000000;fontSize=17;fillColor=#FFFFFF;" parent="1" vertex="1">
                    <mxGeometry x="400" y="598" width="210" height="1" as="geometry"/>
                </mxCell>
                <mxCell id="497" value="&lt;font style=&quot;font-size: 14px;&quot; color=&quot;#000000&quot;&gt;Locked&lt;/font&gt;" style="shape=partialRectangle;whiteSpace=wrap;html=1;bottom=1;right=1;left=1;top=0;fillColor=#FFFFFF;routingCenterX=-0.5;shadow=0;comic=0;strokeColor=#000000;fontSize=17;" parent="1" vertex="1">
                    <mxGeometry x="70" y="597" width="290" height="30" as="geometry"/>
                </mxCell>
                <mxCell id="498" value="&lt;font size=&quot;1&quot; style=&quot;&quot; color=&quot;#000000&quot;&gt;&lt;b style=&quot;font-size: 12px;&quot;&gt;Aura&lt;/b&gt;&lt;/font&gt;" style="shape=partialRectangle;whiteSpace=wrap;html=1;bottom=1;right=1;left=1;top=0;fillColor=#FFFFFF;routingCenterX=-0.5;shadow=0;comic=0;strokeColor=#000000;fontSize=17;direction=west;gradientColor=none;gradientDirection=west;" parent="1" vertex="1">
                    <mxGeometry x="70" y="568" width="290" height="30" as="geometry"/>
                </mxCell>
                <mxCell id="499" value="" style="line;strokeWidth=1;html=1;shadow=0;comic=0;strokeColor=#000000;fontSize=17;fillColor=#FFFFFF;" parent="1" vertex="1">
                    <mxGeometry x="110" y="598" width="210" height="1" as="geometry"/>
                </mxCell>
                <mxCell id="500" value="&lt;font style=&quot;font-size: 14px;&quot; color=&quot;#000000&quot;&gt;19&lt;/font&gt;" style="shape=partialRectangle;whiteSpace=wrap;html=1;bottom=1;right=1;left=1;top=0;fillColor=#FFFFFF;routingCenterX=-0.5;shadow=0;comic=0;strokeColor=#000000;fontSize=17;" parent="1" vertex="1">
                    <mxGeometry x="360" y="656" width="290" height="30" as="geometry"/>
                </mxCell>
                <mxCell id="501" value="&lt;font size=&quot;1&quot; style=&quot;&quot; color=&quot;#000000&quot;&gt;&lt;b style=&quot;font-size: 12px;&quot;&gt;Charisma&lt;/b&gt;&lt;/font&gt;" style="shape=partialRectangle;whiteSpace=wrap;html=1;bottom=1;right=1;left=1;top=0;fillColor=#FFFFFF;routingCenterX=-0.5;shadow=0;comic=0;strokeColor=#000000;fontSize=17;direction=west;gradientColor=none;gradientDirection=west;" parent="1" vertex="1">
                    <mxGeometry x="360" y="627" width="290" height="30" as="geometry"/>
                </mxCell>
                <mxCell id="502" value="" style="line;strokeWidth=1;html=1;shadow=0;comic=0;strokeColor=#000000;fontSize=17;fillColor=#FFFFFF;" parent="1" vertex="1">
                    <mxGeometry x="400" y="657" width="210" height="1" as="geometry"/>
                </mxCell>
                <mxCell id="503" value="&lt;font style=&quot;font-size: 14px;&quot; color=&quot;#000000&quot;&gt;18&lt;/font&gt;" style="shape=partialRectangle;whiteSpace=wrap;html=1;bottom=1;right=1;left=1;top=0;fillColor=#FFFFFF;routingCenterX=-0.5;shadow=0;comic=0;strokeColor=#000000;fontSize=17;" parent="1" vertex="1">
                    <mxGeometry x="70" y="656" width="290" height="30" as="geometry"/>
                </mxCell>
                <mxCell id="504" value="&lt;font size=&quot;1&quot; style=&quot;&quot; color=&quot;#000000&quot;&gt;&lt;b style=&quot;font-size: 12px;&quot;&gt;Constitution&lt;/b&gt;&lt;/font&gt;" style="shape=partialRectangle;whiteSpace=wrap;html=1;bottom=1;right=1;left=1;top=0;fillColor=#FFFFFF;routingCenterX=-0.5;shadow=0;comic=0;strokeColor=#000000;fontSize=17;direction=west;gradientColor=none;gradientDirection=west;" parent="1" vertex="1">
                    <mxGeometry x="70" y="627" width="290" height="30" as="geometry"/>
                </mxCell>
                <mxCell id="505" value="" style="line;strokeWidth=1;html=1;shadow=0;comic=0;strokeColor=#000000;fontSize=17;fillColor=#FFFFFF;" parent="1" vertex="1">
                    <mxGeometry x="110" y="657" width="210" height="1" as="geometry"/>
                </mxCell>
                <mxCell id="506" value="&lt;font style=&quot;font-size: 14px;&quot; color=&quot;#000000&quot;&gt;15&lt;/font&gt;" style="shape=partialRectangle;whiteSpace=wrap;html=1;bottom=1;right=1;left=1;top=0;fillColor=#FFFFFF;routingCenterX=-0.5;shadow=0;comic=0;strokeColor=#000000;fontSize=17;" parent="1" vertex="1">
                    <mxGeometry x="360" y="715" width="290" height="30" as="geometry"/>
                </mxCell>
                <mxCell id="507" value="&lt;font size=&quot;1&quot; style=&quot;&quot; color=&quot;#000000&quot;&gt;&lt;b style=&quot;font-size: 12px;&quot;&gt;Luck&lt;/b&gt;&lt;/font&gt;" style="shape=partialRectangle;whiteSpace=wrap;html=1;bottom=1;right=1;left=1;top=0;fillColor=#FFFFFF;routingCenterX=-0.5;shadow=0;comic=0;strokeColor=#000000;fontSize=17;direction=west;gradientColor=none;gradientDirection=west;" parent="1" vertex="1">
                    <mxGeometry x="360" y="686" width="290" height="30" as="geometry"/>
                </mxCell>
                <mxCell id="508" value="" style="line;strokeWidth=1;html=1;shadow=0;comic=0;strokeColor=#000000;fontSize=17;fillColor=#FFFFFF;" parent="1" vertex="1">
                    <mxGeometry x="400" y="716" width="210" height="1" as="geometry"/>
                </mxCell>
                <mxCell id="509" value="&lt;font style=&quot;font-size: 14px;&quot; color=&quot;#000000&quot;&gt;34&lt;/font&gt;" style="shape=partialRectangle;whiteSpace=wrap;html=1;bottom=1;right=1;left=1;top=0;fillColor=#FFFFFF;routingCenterX=-0.5;shadow=0;comic=0;strokeColor=#000000;fontSize=17;" parent="1" vertex="1">
                    <mxGeometry x="70" y="715" width="290" height="30" as="geometry"/>
                </mxCell>
                <mxCell id="510" value="&lt;font size=&quot;1&quot; style=&quot;&quot; color=&quot;#000000&quot;&gt;&lt;b style=&quot;font-size: 12px;&quot;&gt;Spirit&lt;/b&gt;&lt;/font&gt;" style="shape=partialRectangle;whiteSpace=wrap;html=1;bottom=1;right=1;left=1;top=0;fillColor=#FFFFFF;routingCenterX=-0.5;shadow=0;comic=0;strokeColor=#000000;fontSize=17;direction=west;gradientColor=none;gradientDirection=west;" parent="1" vertex="1">
                    <mxGeometry x="70" y="686" width="290" height="30" as="geometry"/>
                </mxCell>
                <mxCell id="511" value="" style="line;strokeWidth=1;html=1;shadow=0;comic=0;strokeColor=#000000;fontSize=17;fillColor=#FFFFFF;" parent="1" vertex="1">
                    <mxGeometry x="110" y="716" width="210" height="1" as="geometry"/>
                </mxCell>
                <mxCell id="512" value="&lt;font style=&quot;font-size: 14px;&quot; color=&quot;#000000&quot;&gt;Locked (141)&lt;/font&gt;" style="shape=partialRectangle;whiteSpace=wrap;html=1;bottom=1;right=1;left=1;top=0;fillColor=#FFFFFF;routingCenterX=-0.5;shadow=0;comic=0;strokeColor=#000000;fontSize=17;" parent="1" vertex="1">
                    <mxGeometry x="360" y="774" width="290" height="30" as="geometry"/>
                </mxCell>
                <mxCell id="513" value="&lt;font size=&quot;1&quot; style=&quot;&quot; color=&quot;#000000&quot;&gt;&lt;b style=&quot;font-size: 12px;&quot;&gt;Free Status Points&lt;/b&gt;&lt;/font&gt;" style="shape=partialRectangle;whiteSpace=wrap;html=1;bottom=1;right=1;left=1;top=0;fillColor=#FFFFFF;routingCenterX=-0.5;shadow=0;comic=0;strokeColor=#000000;fontSize=17;direction=west;gradientColor=none;gradientDirection=west;" parent="1" vertex="1">
                    <mxGeometry x="360" y="745" width="290" height="30" as="geometry"/>
                </mxCell>
                <mxCell id="514" value="" style="line;strokeWidth=1;html=1;shadow=0;comic=0;strokeColor=#000000;fontSize=17;fillColor=#FFFFFF;" parent="1" vertex="1">
                    <mxGeometry x="400" y="775" width="210" height="1" as="geometry"/>
                </mxCell>
                <mxCell id="515" value="&lt;font style=&quot;font-size: 14px;&quot; color=&quot;#000000&quot;&gt;Locked&lt;/font&gt;" style="shape=partialRectangle;whiteSpace=wrap;html=1;bottom=1;right=1;left=1;top=0;fillColor=#FFFFFF;routingCenterX=-0.5;shadow=0;comic=0;strokeColor=#000000;fontSize=17;" parent="1" vertex="1">
                    <mxGeometry x="70" y="774" width="290" height="30" as="geometry"/>
                </mxCell>
                <mxCell id="516" value="&lt;font size=&quot;1&quot; style=&quot;&quot; color=&quot;#000000&quot;&gt;&lt;b style=&quot;font-size: 12px;&quot;&gt;Defense&lt;/b&gt;&lt;/font&gt;" style="shape=partialRectangle;whiteSpace=wrap;html=1;bottom=1;right=1;left=1;top=0;fillColor=#FFFFFF;routingCenterX=-0.5;shadow=0;comic=0;strokeColor=#000000;fontSize=17;direction=west;gradientColor=none;gradientDirection=west;" parent="1" vertex="1">
                    <mxGeometry x="70" y="745" width="290" height="30" as="geometry"/>
                </mxCell>
                <mxCell id="517" value="" style="line;strokeWidth=1;html=1;shadow=0;comic=0;strokeColor=#000000;fontSize=17;fillColor=#FFFFFF;" parent="1" vertex="1">
                    <mxGeometry x="110" y="775" width="210" height="1" as="geometry"/>
                </mxCell>
                <UserObject label="%Skill%&lt;hr&gt;%Level%" Skill="Greater Mana Sense" Level="51" Experience="1326" placeholders="1" id="633">
                    <mxCell style="shape=partialRectangle;whiteSpace=wrap;html=1;shadow=0;comic=0;pointerEvents=1;strokeColor=#000000;strokeWidth=1;fontFamily=Helvetica;fontSize=12;fillColor=#FFFFFF;fontColor=#000000;" vertex="1" parent="1">
                        <mxGeometry x="70" y="860" width="145" height="60" as="geometry"/>
                    </mxCell>
                </UserObject>
                <UserObject label="%Skill%&lt;hr&gt;%Level%" Skill="Mana Manipulation" Level="12" Experience="78" placeholders="1" id="634">
                    <mxCell style="shape=partialRectangle;whiteSpace=wrap;html=1;shadow=0;comic=0;pointerEvents=1;strokeColor=#000000;strokeWidth=1;fontFamily=Helvetica;fontSize=12;fillColor=#FFFFFF;fontColor=#000000;" vertex="1" parent="1">
                        <mxGeometry x="70" y="920" width="145" height="60" as="geometry"/>
                    </mxCell>
                </UserObject>
                <UserObject label="%Skill%&lt;hr&gt;%Level%" Skill="Mana Absorption" Level="13" Experience="91" placeholders="1" id="635">
                    <mxCell style="shape=partialRectangle;whiteSpace=wrap;html=1;shadow=0;comic=0;pointerEvents=1;strokeColor=#000000;strokeWidth=1;fontFamily=Helvetica;fontSize=12;fillColor=#FFFFFF;fontColor=#000000;" vertex="1" parent="1">
                        <mxGeometry x="70" y="980" width="145" height="60" as="geometry"/>
                    </mxCell>
                </UserObject>
                <UserObject label="%Skill%&lt;hr&gt;%Level%" Skill="Mana Emission" Level="14" Experience="105" placeholders="1" id="636">
                    <mxCell style="shape=partialRectangle;whiteSpace=wrap;html=1;shadow=0;comic=0;pointerEvents=1;strokeColor=#000000;strokeWidth=1;fontFamily=Helvetica;fontSize=12;fillColor=#FFFFFF;fontColor=#000000;" vertex="1" parent="1">
                        <mxGeometry x="70" y="1040" width="145" height="60" as="geometry"/>
                    </mxCell>
                </UserObject>
                <UserObject label="%Skill%&lt;hr&gt;%Level%" Skill="Mana Painting" Level="9" Experience="45" placeholders="1" id="637">
                    <mxCell style="shape=partialRectangle;whiteSpace=wrap;html=1;shadow=0;comic=0;pointerEvents=1;strokeColor=#000000;strokeWidth=1;fontFamily=Helvetica;fontSize=12;fillColor=#FFFFFF;fontColor=#000000;" vertex="1" parent="1">
                        <mxGeometry x="70" y="1100" width="145" height="60" as="geometry"/>
                    </mxCell>
                </UserObject>
                <UserObject label="%Skill%&lt;hr&gt;%Level%" Skill="Mana Theory" Level="3" Experience="6" placeholders="1" id="638">
                    <mxCell style="shape=partialRectangle;whiteSpace=wrap;html=1;shadow=0;comic=0;pointerEvents=1;strokeColor=#000000;strokeWidth=1;fontFamily=Helvetica;fontSize=12;fillColor=#FFFFFF;fontColor=#000000;" vertex="1" parent="1">
                        <mxGeometry x="215" y="860" width="145" height="60" as="geometry"/>
                    </mxCell>
                </UserObject>
                <UserObject label="%Skill%&lt;hr&gt;%Level%" Skill="Emotional (Mana) Perception" Level="20" Experience="210" placeholders="1" id="639">
                    <mxCell style="shape=partialRectangle;whiteSpace=wrap;html=1;shadow=0;comic=0;pointerEvents=1;strokeColor=#000000;strokeWidth=1;fontFamily=Helvetica;fontSize=12;fillColor=#FFFFFF;fontColor=#000000;" vertex="1" parent="1">
                        <mxGeometry x="215" y="920" width="145" height="60" as="geometry"/>
                    </mxCell>
                </UserObject>
                <UserObject label="%Skill%&lt;hr&gt;%Level%" Skill="Chanting" Level="12" Experience="78" placeholders="1" id="640">
                    <mxCell style="shape=partialRectangle;whiteSpace=wrap;html=1;shadow=0;comic=0;pointerEvents=1;strokeColor=#000000;strokeWidth=1;fontFamily=Helvetica;fontSize=12;fillColor=#FFFFFF;fontColor=#000000;" vertex="1" parent="1">
                        <mxGeometry x="215" y="980" width="145" height="60" as="geometry"/>
                    </mxCell>
                </UserObject>
                <UserObject label="%Skill%&lt;hr&gt;%Level%" Skill="Spell-Crafting" Level="14" Experience="105" placeholders="1" id="641">
                    <mxCell style="shape=partialRectangle;whiteSpace=wrap;html=1;shadow=0;comic=0;pointerEvents=1;strokeColor=#000000;strokeWidth=1;fontFamily=Helvetica;fontSize=12;fillColor=#FFFFFF;fontColor=#000000;" vertex="1" parent="1">
                        <mxGeometry x="215" y="1040" width="145" height="60" as="geometry"/>
                    </mxCell>
                </UserObject>
                <UserObject label="%Skill%&lt;hr&gt;%Level%" Skill="Calligraphy" Level="21" Experience="231" placeholders="1" id="642">
                    <mxCell style="shape=partialRectangle;whiteSpace=wrap;html=1;shadow=0;comic=0;pointerEvents=1;strokeColor=#000000;strokeWidth=1;fontFamily=Helvetica;fontSize=12;fillColor=#FFFFFF;fontColor=#000000;" vertex="1" parent="1">
                        <mxGeometry x="215" y="1100" width="145" height="60" as="geometry"/>
                    </mxCell>
                </UserObject>
                <UserObject label="%Skill%&lt;hr&gt;%Level%" Skill="Acting" Level="9" Experience="45" placeholders="1" id="643">
                    <mxCell style="shape=partialRectangle;whiteSpace=wrap;html=1;shadow=0;comic=0;pointerEvents=1;strokeColor=#000000;strokeWidth=1;fontFamily=Helvetica;fontSize=12;fillColor=#FFFFFF;fontColor=#000000;" vertex="1" parent="1">
                        <mxGeometry x="215" y="1160" width="145" height="60" as="geometry"/>
                    </mxCell>
                </UserObject>
                <UserObject label="%Skill%&lt;hr&gt;%Level%" Skill="Dancing" Level="8" Experience="36" placeholders="1" id="644">
                    <mxCell style="shape=partialRectangle;whiteSpace=wrap;html=1;shadow=0;comic=0;pointerEvents=1;strokeColor=#000000;strokeWidth=1;fontFamily=Helvetica;fontSize=12;fillColor=#FFFFFF;fontColor=#000000;" vertex="1" parent="1">
                        <mxGeometry x="215" y="1220" width="145" height="60" as="geometry"/>
                    </mxCell>
                </UserObject>
                <UserObject label="%Skill%&lt;hr&gt;%Level%" Skill="Drawing" Level="52" Experience="1378" placeholders="1" id="645">
                    <mxCell style="shape=partialRectangle;whiteSpace=wrap;html=1;shadow=0;comic=0;pointerEvents=1;strokeColor=#000000;strokeWidth=1;fontFamily=Helvetica;fontSize=12;fillColor=#FFFFFF;fontColor=#000000;" vertex="1" parent="1">
                        <mxGeometry x="215" y="1280" width="145" height="60" as="geometry"/>
                    </mxCell>
                </UserObject>
                <UserObject label="%Skill%&lt;hr&gt;%Level%" Skill="Painting" Level="63" Experience="2016" placeholders="1" id="646">
                    <mxCell style="shape=partialRectangle;whiteSpace=wrap;html=1;shadow=0;comic=0;pointerEvents=1;strokeColor=#000000;strokeWidth=1;fontFamily=Helvetica;fontSize=12;fillColor=#FFFFFF;fontColor=#000000;" vertex="1" parent="1">
                        <mxGeometry x="215" y="1340" width="145" height="60" as="geometry"/>
                    </mxCell>
                </UserObject>
                <UserObject label="%Skill%&lt;hr&gt;%Level%" Skill="Poetry" Level="17" Experience="153" placeholders="1" id="647">
                    <mxCell style="shape=partialRectangle;whiteSpace=wrap;html=1;shadow=0;comic=0;pointerEvents=1;strokeColor=#000000;strokeWidth=1;fontFamily=Helvetica;fontSize=12;fillColor=#FFFFFF;fontColor=#000000;" vertex="1" parent="1">
                        <mxGeometry x="215" y="1400" width="145" height="60" as="geometry"/>
                    </mxCell>
                </UserObject>
                <UserObject label="%Skill%&lt;hr&gt;%Level%" Skill="Sculpting" Level="18" Experience="171" placeholders="1" id="648">
                    <mxCell style="shape=partialRectangle;whiteSpace=wrap;html=1;shadow=0;comic=0;pointerEvents=1;strokeColor=#000000;strokeWidth=1;fontFamily=Helvetica;fontSize=12;fillColor=#FFFFFF;fontColor=#000000;" vertex="1" parent="1">
                        <mxGeometry x="215" y="1460" width="145" height="60" as="geometry"/>
                    </mxCell>
                </UserObject>
                <UserObject label="%Skill%&lt;hr&gt;%Level%" Skill="Violin Playing" Level="18" Experience="171" placeholders="1" id="649">
                    <mxCell style="shape=partialRectangle;whiteSpace=wrap;html=1;shadow=0;comic=0;pointerEvents=1;strokeColor=#000000;strokeWidth=1;fontFamily=Helvetica;fontSize=12;fillColor=#FFFFFF;fontColor=#000000;" vertex="1" parent="1">
                        <mxGeometry x="360" y="860" width="145" height="60" as="geometry"/>
                    </mxCell>
                </UserObject>
                <UserObject label="%Skill%&lt;hr&gt;%Level%" Skill="First Aid" Level="4" Experience="10" placeholders="1" id="650">
                    <mxCell style="shape=partialRectangle;whiteSpace=wrap;html=1;shadow=0;comic=0;pointerEvents=1;strokeColor=#000000;strokeWidth=1;fontFamily=Helvetica;fontSize=12;fillColor=#FFFFFF;fontColor=#000000;" vertex="1" parent="1">
                        <mxGeometry x="360" y="920" width="145" height="60" as="geometry"/>
                    </mxCell>
                </UserObject>
                <UserObject label="%Skill%&lt;hr&gt;%Level%" Skill="Conflict Avoidance" Level="10" Experience="55" placeholders="1" id="651">
                    <mxCell style="shape=partialRectangle;whiteSpace=wrap;html=1;shadow=0;comic=0;pointerEvents=1;strokeColor=#000000;strokeWidth=1;fontFamily=Helvetica;fontSize=12;fillColor=#FFFFFF;fontColor=#000000;" vertex="1" parent="1">
                        <mxGeometry x="360" y="980" width="145" height="60" as="geometry"/>
                    </mxCell>
                </UserObject>
                <UserObject label="%Skill%&lt;hr&gt;%Level%" Skill="Social Perception" Level="22" Experience="253" placeholders="1" id="652">
                    <mxCell style="shape=partialRectangle;whiteSpace=wrap;html=1;shadow=0;comic=0;pointerEvents=1;strokeColor=#000000;strokeWidth=1;fontFamily=Helvetica;fontSize=12;fillColor=#FFFFFF;fontColor=#000000;" vertex="1" parent="1">
                        <mxGeometry x="360" y="1040" width="145" height="60" as="geometry"/>
                    </mxCell>
                </UserObject>
                <UserObject label="%Skill%&lt;hr&gt;%Level%" Skill="Active Listening" Level="32" Experience="528" placeholders="1" id="653">
                    <mxCell style="shape=partialRectangle;whiteSpace=wrap;html=1;shadow=0;comic=0;pointerEvents=1;strokeColor=#000000;strokeWidth=1;fontFamily=Helvetica;fontSize=12;fillColor=#FFFFFF;fontColor=#000000;" vertex="1" parent="1">
                        <mxGeometry x="360" y="1100" width="145" height="60" as="geometry"/>
                    </mxCell>
                </UserObject>
                <UserObject label="%Skill%&lt;hr&gt;%Level%" Skill="Relationship Building" Level="9" Experience="45" placeholders="1" id="654">
                    <mxCell style="shape=partialRectangle;whiteSpace=wrap;html=1;shadow=0;comic=0;pointerEvents=1;strokeColor=#000000;strokeWidth=1;fontFamily=Helvetica;fontSize=12;fillColor=#FFFFFF;fontColor=#000000;" vertex="1" parent="1">
                        <mxGeometry x="360" y="1160" width="145" height="60" as="geometry"/>
                    </mxCell>
                </UserObject>
                <UserObject label="%Skill%&lt;hr&gt;%Level%" Skill="Empathy" Level="42" Experience="903" placeholders="1" id="655">
                    <mxCell style="shape=partialRectangle;whiteSpace=wrap;html=1;shadow=0;comic=0;pointerEvents=1;strokeColor=#000000;strokeWidth=1;fontFamily=Helvetica;fontSize=12;fillColor=#FFFFFF;fontColor=#000000;" vertex="1" parent="1">
                        <mxGeometry x="360" y="1220" width="145" height="60" as="geometry"/>
                    </mxCell>
                </UserObject>
                <UserObject label="%Skill%&lt;hr&gt;%Level%" Skill="Detect Lies" Level="28" Experience="406" placeholders="1" id="656">
                    <mxCell style="shape=partialRectangle;whiteSpace=wrap;html=1;shadow=0;comic=0;pointerEvents=1;strokeColor=#000000;strokeWidth=1;fontFamily=Helvetica;fontSize=12;fillColor=#FFFFFF;fontColor=#000000;" vertex="1" parent="1">
                        <mxGeometry x="360" y="1280" width="145" height="60" as="geometry"/>
                    </mxCell>
                </UserObject>
                <UserObject label="%Skill%&lt;hr&gt;%Level%" Skill="Psychology" Level="32" Experience="528" placeholders="1" id="657">
                    <mxCell style="shape=partialRectangle;whiteSpace=wrap;html=1;shadow=0;comic=0;pointerEvents=1;strokeColor=#000000;strokeWidth=1;fontFamily=Helvetica;fontSize=12;fillColor=#FFFFFF;fontColor=#000000;" vertex="1" parent="1">
                        <mxGeometry x="360" y="1340" width="145" height="60" as="geometry"/>
                    </mxCell>
                </UserObject>
                <UserObject label="%Skill%&lt;hr&gt;%Level%" Skill="Convincing" Level="7" Experience="28" placeholders="1" id="658">
                    <mxCell style="shape=partialRectangle;whiteSpace=wrap;html=1;shadow=0;comic=0;pointerEvents=1;strokeColor=#000000;strokeWidth=1;fontFamily=Helvetica;fontSize=12;fillColor=#FFFFFF;fontColor=#000000;" vertex="1" parent="1">
                        <mxGeometry x="360" y="1400" width="145" height="60" as="geometry"/>
                    </mxCell>
                </UserObject>
                <UserObject label="%Skill%&lt;hr&gt;%Level%" Skill="Linguistics" Level="5" Experience="15" placeholders="1" id="659">
                    <mxCell style="shape=partialRectangle;whiteSpace=wrap;html=1;shadow=0;comic=0;pointerEvents=1;strokeColor=#000000;strokeWidth=1;fontFamily=Helvetica;fontSize=12;fillColor=#FFFFFF;fontColor=#000000;" vertex="1" parent="1">
                        <mxGeometry x="360" y="1460" width="145" height="60" as="geometry"/>
                    </mxCell>
                </UserObject>
                <UserObject label="%Skill%&lt;hr&gt;%Level%" Skill="Mathematics" Level="7" Experience="28" placeholders="1" id="660">
                    <mxCell style="shape=partialRectangle;whiteSpace=wrap;html=1;shadow=0;comic=0;pointerEvents=1;strokeColor=#000000;strokeWidth=1;fontFamily=Helvetica;fontSize=12;fillColor=#FFFFFF;fontColor=#000000;" vertex="1" parent="1">
                        <mxGeometry x="360" y="1520" width="145" height="60" as="geometry"/>
                    </mxCell>
                </UserObject>
                <UserObject label="%Skill%&lt;hr&gt;%Level%" Skill="Culture" Level="8" Experience="36" placeholders="1" id="661">
                    <mxCell style="shape=partialRectangle;whiteSpace=wrap;html=1;shadow=0;comic=0;pointerEvents=1;strokeColor=#000000;strokeWidth=1;fontFamily=Helvetica;fontSize=12;fillColor=#FFFFFF;fontColor=#000000;" vertex="1" parent="1">
                        <mxGeometry x="360" y="1580" width="145" height="60" as="geometry"/>
                    </mxCell>
                </UserObject>
                <UserObject label="%Skill%&lt;hr&gt;%Level%" Skill="History" Level="5" Experience="15" placeholders="1" id="662">
                    <mxCell style="shape=partialRectangle;whiteSpace=wrap;html=1;shadow=0;comic=0;pointerEvents=1;strokeColor=#000000;strokeWidth=1;fontFamily=Helvetica;fontSize=12;fillColor=#FFFFFF;fontColor=#000000;" vertex="1" parent="1">
                        <mxGeometry x="360" y="1640" width="145" height="60" as="geometry"/>
                    </mxCell>
                </UserObject>
                <UserObject label="%Skill%&lt;hr&gt;%Level%" Skill="Philosophy" Level="9" Experience="45" placeholders="1" id="663">
                    <mxCell style="shape=partialRectangle;whiteSpace=wrap;html=1;shadow=0;comic=0;pointerEvents=1;strokeColor=#000000;strokeWidth=1;fontFamily=Helvetica;fontSize=12;fillColor=#FFFFFF;fontColor=#000000;" vertex="1" parent="1">
                        <mxGeometry x="360" y="1700" width="145" height="60" as="geometry"/>
                    </mxCell>
                </UserObject>
                <UserObject label="%Skill%&lt;hr&gt;%Level%" Skill="Politics" Level="10" Experience="55" placeholders="1" id="664">
                    <mxCell style="shape=partialRectangle;whiteSpace=wrap;html=1;shadow=0;comic=0;pointerEvents=1;strokeColor=#000000;strokeWidth=1;fontFamily=Helvetica;fontSize=12;fillColor=#FFFFFF;fontColor=#000000;" vertex="1" parent="1">
                        <mxGeometry x="360" y="1760" width="145" height="60" as="geometry"/>
                    </mxCell>
                </UserObject>
                <UserObject label="%Skill%&lt;hr&gt;%Level%" Skill="Major Aesthetics" Level="58" Experience="1711" placeholders="1" id="665">
                    <mxCell style="shape=partialRectangle;whiteSpace=wrap;html=1;shadow=0;comic=0;pointerEvents=1;strokeColor=#000000;strokeWidth=1;fontFamily=Helvetica;fontSize=12;fillColor=#FFFFFF;fontColor=#000000;" vertex="1" parent="1">
                        <mxGeometry x="360" y="1820" width="145" height="60" as="geometry"/>
                    </mxCell>
                </UserObject>
                <UserObject label="%Skill%&lt;hr&gt;%Level%" Skill="Etiquette" Level="16" Experience="136" placeholders="1" id="666">
                    <mxCell style="shape=partialRectangle;whiteSpace=wrap;html=1;shadow=0;comic=0;pointerEvents=1;strokeColor=#000000;strokeWidth=1;fontFamily=Helvetica;fontSize=12;fillColor=#FFFFFF;fontColor=#000000;" vertex="1" parent="1">
                        <mxGeometry x="360" y="1880" width="145" height="60" as="geometry"/>
                    </mxCell>
                </UserObject>
                <UserObject label="%Skill%&lt;hr&gt;%Level%" Skill="Ethics" Level="6" Experience="21" placeholders="1" id="667">
                    <mxCell style="shape=partialRectangle;whiteSpace=wrap;html=1;shadow=0;comic=0;pointerEvents=1;strokeColor=#000000;strokeWidth=1;fontFamily=Helvetica;fontSize=12;fillColor=#FFFFFF;fontColor=#000000;" vertex="1" parent="1">
                        <mxGeometry x="360" y="1940" width="145" height="60" as="geometry"/>
                    </mxCell>
                </UserObject>
                <UserObject label="%Skill%&lt;hr&gt;%Level%" Skill="Martial Arts" Level="3" Experience="6" placeholders="1" id="668">
                    <mxCell style="shape=partialRectangle;whiteSpace=wrap;html=1;shadow=0;comic=0;pointerEvents=1;strokeColor=#000000;strokeWidth=1;fontFamily=Helvetica;fontSize=12;fillColor=#FFFFFF;fontColor=#000000;" vertex="1" parent="1">
                        <mxGeometry x="360" y="2000" width="145" height="60" as="geometry"/>
                    </mxCell>
                </UserObject>
                <UserObject label="%Skill%&lt;hr&gt;%Level%" Skill="Sword Arts" Level="5" Experience="15" placeholders="1" id="669">
                    <mxCell style="shape=partialRectangle;whiteSpace=wrap;html=1;shadow=0;comic=0;pointerEvents=1;strokeColor=#000000;strokeWidth=1;fontFamily=Helvetica;fontSize=12;fillColor=#FFFFFF;fontColor=#000000;" vertex="1" parent="1">
                        <mxGeometry x="360" y="2060" width="145" height="60" as="geometry"/>
                    </mxCell>
                </UserObject>
                <UserObject label="%Skill%&lt;hr&gt;%Level%" Skill="Bow Arts" Level="4" Experience="10" placeholders="1" id="670">
                    <mxCell style="shape=partialRectangle;whiteSpace=wrap;html=1;shadow=0;comic=0;pointerEvents=1;strokeColor=#000000;strokeWidth=1;fontFamily=Helvetica;fontSize=12;fillColor=#FFFFFF;fontColor=#000000;" vertex="1" parent="1">
                        <mxGeometry x="360" y="2120" width="145" height="60" as="geometry"/>
                    </mxCell>
                </UserObject>
                <UserObject label="%Skill%&lt;hr&gt;%Level%" Skill="Running" Level="10" Experience="55" placeholders="1" id="671">
                    <mxCell style="shape=partialRectangle;whiteSpace=wrap;html=1;shadow=0;comic=0;pointerEvents=1;strokeColor=#000000;strokeWidth=1;fontFamily=Helvetica;fontSize=12;fillColor=#FFFFFF;fontColor=#000000;" vertex="1" parent="1">
                        <mxGeometry x="360" y="2180" width="145" height="60" as="geometry"/>
                    </mxCell>
                </UserObject>
                <UserObject label="%Skill%&lt;hr&gt;%Level%" Skill="Dashing" Level="5" Experience="15" placeholders="1" id="672">
                    <mxCell style="shape=partialRectangle;whiteSpace=wrap;html=1;shadow=0;comic=0;pointerEvents=1;strokeColor=#000000;strokeWidth=1;fontFamily=Helvetica;fontSize=12;fillColor=#FFFFFF;fontColor=#000000;" vertex="1" parent="1">
                        <mxGeometry x="360" y="2240" width="145" height="60" as="geometry"/>
                    </mxCell>
                </UserObject>
                <UserObject label="%Skill%&lt;hr&gt;%Level%" Skill="Swimming" Level="3" Experience="6" placeholders="1" id="673">
                    <mxCell style="shape=partialRectangle;whiteSpace=wrap;html=1;shadow=0;comic=0;pointerEvents=1;strokeColor=#000000;strokeWidth=1;fontFamily=Helvetica;fontSize=12;fillColor=#FFFFFF;fontColor=#000000;" vertex="1" parent="1">
                        <mxGeometry x="360" y="2300" width="145" height="60" as="geometry"/>
                    </mxCell>
                </UserObject>
                <UserObject label="%Skill%&lt;hr&gt;%Level%" Skill="Dodging" Level="6" Experience="21" placeholders="1" id="674">
                    <mxCell style="shape=partialRectangle;whiteSpace=wrap;html=1;shadow=0;comic=0;pointerEvents=1;strokeColor=#000000;strokeWidth=1;fontFamily=Helvetica;fontSize=12;fillColor=#FFFFFF;fontColor=#000000;" vertex="1" parent="1">
                        <mxGeometry x="505" y="860" width="145" height="60" as="geometry"/>
                    </mxCell>
                </UserObject>
                <UserObject label="%Skill%&lt;hr&gt;%Level%" Skill="Greater Emotional Intelligence" Level="30" Experience="465" placeholders="1" id="675">
                    <mxCell style="shape=partialRectangle;whiteSpace=wrap;html=1;shadow=0;comic=0;pointerEvents=1;strokeColor=#000000;strokeWidth=1;fontFamily=Helvetica;fontSize=12;fillColor=#FFFFFF;fontColor=#000000;" vertex="1" parent="1">
                        <mxGeometry x="505" y="920" width="145" height="60" as="geometry"/>
                    </mxCell>
                </UserObject>
                <UserObject label="%Skill%&lt;hr&gt;%Level%" Skill="Compassion" Level="34" Experience="595" placeholders="1" id="676">
                    <mxCell style="shape=partialRectangle;whiteSpace=wrap;html=1;shadow=0;comic=0;pointerEvents=1;strokeColor=#000000;strokeWidth=1;fontFamily=Helvetica;fontSize=12;fillColor=#FFFFFF;fontColor=#000000;" vertex="1" parent="1">
                        <mxGeometry x="505" y="980" width="145" height="60" as="geometry"/>
                    </mxCell>
                </UserObject>
                <UserObject label="%Skill%&lt;hr&gt;%Level%" Skill="Self-Awareness" Level="17" Experience="153" placeholders="1" id="677">
                    <mxCell style="shape=partialRectangle;whiteSpace=wrap;html=1;shadow=0;comic=0;pointerEvents=1;strokeColor=#000000;strokeWidth=1;fontFamily=Helvetica;fontSize=12;fillColor=#FFFFFF;fontColor=#000000;" vertex="1" parent="1">
                        <mxGeometry x="505" y="1040" width="145" height="60" as="geometry"/>
                    </mxCell>
                </UserObject>
                <UserObject label="%Skill%&lt;hr&gt;%Level%" Skill="Cleaning" Level="3" Experience="6" placeholders="1" id="678">
                    <mxCell style="shape=partialRectangle;whiteSpace=wrap;html=1;shadow=0;comic=0;pointerEvents=1;strokeColor=#000000;strokeWidth=1;fontFamily=Helvetica;fontSize=12;fillColor=#FFFFFF;fontColor=#000000;" vertex="1" parent="1">
                        <mxGeometry x="505" y="1100" width="145" height="60" as="geometry"/>
                    </mxCell>
                </UserObject>
                <UserObject label="%Skill%&lt;hr&gt;%Level%" Skill="Cooking" Level="5" Experience="15" placeholders="1" id="679">
                    <mxCell style="shape=partialRectangle;whiteSpace=wrap;html=1;shadow=0;comic=0;pointerEvents=1;strokeColor=#000000;strokeWidth=1;fontFamily=Helvetica;fontSize=12;fillColor=#FFFFFF;fontColor=#000000;" vertex="1" parent="1">
                        <mxGeometry x="505" y="1160" width="145" height="60" as="geometry"/>
                    </mxCell>
                </UserObject>
                <UserObject label="%Skill%&lt;hr&gt;%Level%" Skill="Baking" Level="3" Experience="6" placeholders="1" id="680">
                    <mxCell style="shape=partialRectangle;whiteSpace=wrap;html=1;shadow=0;comic=0;pointerEvents=1;strokeColor=#000000;strokeWidth=1;fontFamily=Helvetica;fontSize=12;fillColor=#FFFFFF;fontColor=#000000;" vertex="1" parent="1">
                        <mxGeometry x="505" y="1220" width="145" height="60" as="geometry"/>
                    </mxCell>
                </UserObject>
                <UserObject label="%Skill%&lt;hr&gt;%Level%" Skill="Tailoring" Level="17" Experience="153" placeholders="1" id="681">
                    <mxCell style="shape=partialRectangle;whiteSpace=wrap;html=1;shadow=0;comic=0;pointerEvents=1;strokeColor=#000000;strokeWidth=1;fontFamily=Helvetica;fontSize=12;fillColor=#FFFFFF;fontColor=#000000;" vertex="1" parent="1">
                        <mxGeometry x="505" y="1280" width="145" height="60" as="geometry"/>
                    </mxCell>
                </UserObject>
                <UserObject label="%Skill%&lt;hr&gt;%Level%" Skill="Sewing" Level="13" Experience="91" placeholders="1" id="682">
                    <mxCell style="shape=partialRectangle;whiteSpace=wrap;html=1;shadow=0;comic=0;pointerEvents=1;strokeColor=#000000;strokeWidth=1;fontFamily=Helvetica;fontSize=12;fillColor=#FFFFFF;fontColor=#000000;" vertex="1" parent="1">
                        <mxGeometry x="505" y="1340" width="145" height="60" as="geometry"/>
                    </mxCell>
                </UserObject>
                <UserObject label="%Skill%&lt;hr&gt;%Level%" Skill="Knitting" Level="12" Experience="78" placeholders="1" id="683">
                    <mxCell style="shape=partialRectangle;whiteSpace=wrap;html=1;shadow=0;comic=0;pointerEvents=1;strokeColor=#000000;strokeWidth=1;fontFamily=Helvetica;fontSize=12;fillColor=#FFFFFF;fontColor=#000000;" vertex="1" parent="1">
                        <mxGeometry x="505" y="1400" width="145" height="60" as="geometry"/>
                    </mxCell>
                </UserObject>
                <UserObject label="%Skill%&lt;hr&gt;%Level%" Skill="Quilting" Level="14" Experience="105" placeholders="1" id="684">
                    <mxCell style="shape=partialRectangle;whiteSpace=wrap;html=1;shadow=0;comic=0;pointerEvents=1;strokeColor=#000000;strokeWidth=1;fontFamily=Helvetica;fontSize=12;fillColor=#FFFFFF;fontColor=#000000;" vertex="1" parent="1">
                        <mxGeometry x="505" y="1460" width="145" height="60" as="geometry"/>
                    </mxCell>
                </UserObject>
                <UserObject label="%Skill%&lt;hr&gt;%Level%" Skill="Pattern Making" Level="12" Experience="78" placeholders="1" id="685">
                    <mxCell style="shape=partialRectangle;whiteSpace=wrap;html=1;shadow=0;comic=0;pointerEvents=1;strokeColor=#000000;strokeWidth=1;fontFamily=Helvetica;fontSize=12;fillColor=#FFFFFF;fontColor=#000000;" vertex="1" parent="1">
                        <mxGeometry x="505" y="1520" width="145" height="60" as="geometry"/>
                    </mxCell>
                </UserObject>
                <UserObject label="%Skill%&lt;hr&gt;%Level%" Skill="Woodworking" Level="11" Experience="66" placeholders="1" id="686">
                    <mxCell style="shape=partialRectangle;whiteSpace=wrap;html=1;shadow=0;comic=0;pointerEvents=1;strokeColor=#000000;strokeWidth=1;fontFamily=Helvetica;fontSize=12;fillColor=#FFFFFF;fontColor=#000000;" vertex="1" parent="1">
                        <mxGeometry x="505" y="1580" width="145" height="60" as="geometry"/>
                    </mxCell>
                </UserObject>
                <UserObject label="%Skill%&lt;hr&gt;%Level%" Skill="Bookbinding" Level="13" Experience="91" placeholders="1" id="687">
                    <mxCell style="shape=partialRectangle;whiteSpace=wrap;html=1;shadow=0;comic=0;pointerEvents=1;strokeColor=#000000;strokeWidth=1;fontFamily=Helvetica;fontSize=12;fillColor=#FFFFFF;fontColor=#000000;" vertex="1" parent="1">
                        <mxGeometry x="505" y="1640" width="145" height="60" as="geometry"/>
                    </mxCell>
                </UserObject>
                <UserObject label="%Skill%&lt;hr&gt;%Level%" Skill="Charm" Level="17" Experience="153" placeholders="1" id="688">
                    <mxCell style="shape=partialRectangle;whiteSpace=wrap;html=1;shadow=0;comic=0;pointerEvents=1;strokeColor=#000000;strokeWidth=1;fontFamily=Helvetica;fontSize=12;fillColor=#FFFFFF;fontColor=#000000;" vertex="1" parent="1">
                        <mxGeometry x="505" y="1700" width="145" height="60" as="geometry"/>
                    </mxCell>
                </UserObject>
                <UserObject label="%Skill%&lt;hr&gt;%Level%" Skill="Cosmetics" Level="18" Experience="171" placeholders="1" id="689">
                    <mxCell style="shape=partialRectangle;whiteSpace=wrap;html=1;shadow=0;comic=0;pointerEvents=1;strokeColor=#000000;strokeWidth=1;fontFamily=Helvetica;fontSize=12;fillColor=#FFFFFF;fontColor=#000000;" vertex="1" parent="1">
                        <mxGeometry x="505" y="1760" width="145" height="60" as="geometry"/>
                    </mxCell>
                </UserObject>
                <UserObject label="%Skill%&lt;hr&gt;%Level%" Skill="Fashion Sense" Level="15" Experience="120" placeholders="1" id="690">
                    <mxCell style="shape=partialRectangle;whiteSpace=wrap;html=1;shadow=0;comic=0;pointerEvents=1;strokeColor=#000000;strokeWidth=1;fontFamily=Helvetica;fontSize=12;fillColor=#FFFFFF;fontColor=#000000;" vertex="1" parent="1">
                        <mxGeometry x="505" y="1820" width="145" height="60" as="geometry"/>
                    </mxCell>
                </UserObject>
                <UserObject label="%Skill%&lt;hr&gt;%Level%" Skill="Literacy" Level="39" Experience="780" placeholders="1" id="691">
                    <mxCell style="shape=partialRectangle;whiteSpace=wrap;html=1;shadow=0;comic=0;pointerEvents=1;strokeColor=#000000;strokeWidth=1;fontFamily=Helvetica;fontSize=12;fillColor=#FFFFFF;fontColor=#000000;" vertex="1" parent="1">
                        <mxGeometry x="505" y="1880" width="145" height="60" as="geometry"/>
                    </mxCell>
                </UserObject>
                <UserObject label="%Skill%&lt;hr&gt;%Level%" Skill="Cold Resistance" Level="19" Experience="190" placeholders="1" id="692">
                    <mxCell style="shape=partialRectangle;whiteSpace=wrap;html=1;shadow=0;comic=0;pointerEvents=1;strokeColor=#000000;strokeWidth=1;fontFamily=Helvetica;fontSize=12;fillColor=#FFFFFF;fontColor=#000000;" vertex="1" parent="1">
                        <mxGeometry x="505" y="1940" width="145" height="60" as="geometry"/>
                    </mxCell>
                </UserObject>
                <UserObject label="%Skill%&lt;hr&gt;%Level%" Skill="Heat Resistance" Level="18" Experience="171" placeholders="1" id="693">
                    <mxCell style="shape=partialRectangle;whiteSpace=wrap;html=1;shadow=0;comic=0;pointerEvents=1;strokeColor=#000000;strokeWidth=1;fontFamily=Helvetica;fontSize=12;fillColor=#FFFFFF;fontColor=#000000;" vertex="1" parent="1">
                        <mxGeometry x="505" y="2000" width="145" height="60" as="geometry"/>
                    </mxCell>
                </UserObject>
                <UserObject label="%Skill%&lt;hr&gt;%Level%" Skill="Hex Resistance" Level="19" Experience="190" placeholders="1" id="694">
                    <mxCell style="shape=partialRectangle;whiteSpace=wrap;html=1;shadow=0;comic=0;pointerEvents=1;strokeColor=#000000;strokeWidth=1;fontFamily=Helvetica;fontSize=12;fillColor=#FFFFFF;fontColor=#000000;" vertex="1" parent="1">
                        <mxGeometry x="505" y="2060" width="145" height="60" as="geometry"/>
                    </mxCell>
                </UserObject>
                <UserObject label="%Skill%&lt;hr&gt;%Level%" Skill="Disease Resistance" Level="20" Experience="210" placeholders="1" id="695">
                    <mxCell style="shape=partialRectangle;whiteSpace=wrap;html=1;shadow=0;comic=0;pointerEvents=1;strokeColor=#000000;strokeWidth=1;fontFamily=Helvetica;fontSize=12;fillColor=#FFFFFF;fontColor=#000000;" vertex="1" parent="1">
                        <mxGeometry x="505" y="2120" width="145" height="60" as="geometry"/>
                    </mxCell>
                </UserObject>
                <UserObject label="%Skill%&lt;hr&gt;%Level%" Skill="Abnormal Status Resistance" Level="13" Experience="91" placeholders="1" id="696">
                    <mxCell style="shape=partialRectangle;whiteSpace=wrap;html=1;shadow=0;comic=0;pointerEvents=1;strokeColor=#000000;strokeWidth=1;fontFamily=Helvetica;fontSize=12;fillColor=#FFFFFF;fontColor=#000000;" vertex="1" parent="1">
                        <mxGeometry x="505" y="2180" width="145" height="60" as="geometry"/>
                    </mxCell>
                </UserObject>
                <UserObject label="%Skill%&lt;hr&gt;%Level%" Skill="Curse Resistance" Level="21" Experience="231" placeholders="1" id="697">
                    <mxCell style="shape=partialRectangle;whiteSpace=wrap;html=1;shadow=0;comic=0;pointerEvents=1;strokeColor=#000000;strokeWidth=1;fontFamily=Helvetica;fontSize=12;fillColor=#FFFFFF;fontColor=#000000;" vertex="1" parent="1">
                        <mxGeometry x="505" y="2240" width="145" height="60" as="geometry"/>
                    </mxCell>
                </UserObject>
                <UserObject label="%Skill%&lt;hr&gt;%Level%" Skill="Poison Resistance" Level="22" Experience="253" placeholders="1" id="698">
                    <mxCell style="shape=partialRectangle;whiteSpace=wrap;html=1;shadow=0;comic=0;pointerEvents=1;strokeColor=#000000;strokeWidth=1;fontFamily=Helvetica;fontSize=12;fillColor=#FFFFFF;fontColor=#000000;" vertex="1" parent="1">
                        <mxGeometry x="505" y="2300" width="145" height="60" as="geometry"/>
                    </mxCell>
                </UserObject>
                <UserObject label="%Skill%&lt;hr&gt;%Level%" Skill="Corrosion Resistance" Level="18" Experience="171" placeholders="1" id="699">
                    <mxCell style="shape=partialRectangle;whiteSpace=wrap;html=1;shadow=0;comic=0;pointerEvents=1;strokeColor=#000000;strokeWidth=1;fontFamily=Helvetica;fontSize=12;fillColor=#FFFFFF;fontColor=#000000;" vertex="1" parent="1">
                        <mxGeometry x="70" y="1160" width="145" height="60" as="geometry"/>
                    </mxCell>
                </UserObject>
                <UserObject label="%Skill%&lt;hr&gt;%Level%" Skill="Deduction" Level="15" Experience="120" placeholders="1" id="700">
                    <mxCell style="shape=partialRectangle;whiteSpace=wrap;html=1;shadow=0;comic=0;pointerEvents=1;strokeColor=#000000;strokeWidth=1;fontFamily=Helvetica;fontSize=12;fillColor=#FFFFFF;fontColor=#000000;" vertex="1" parent="1">
                        <mxGeometry x="70" y="1220" width="145" height="60" as="geometry"/>
                    </mxCell>
                </UserObject>
                <UserObject label="%Skill%&lt;hr&gt;%Level%" Skill="Analytical Thinking" Level="14" Experience="105" placeholders="1" id="701">
                    <mxCell style="shape=partialRectangle;whiteSpace=wrap;html=1;shadow=0;comic=0;pointerEvents=1;strokeColor=#000000;strokeWidth=1;fontFamily=Helvetica;fontSize=12;fillColor=#FFFFFF;fontColor=#000000;" vertex="1" parent="1">
                        <mxGeometry x="70" y="1280" width="145" height="60" as="geometry"/>
                    </mxCell>
                </UserObject>
                <UserObject label="%Skill%&lt;hr&gt;%Level%" Skill="Comprehension" Level="16" Experience="136" placeholders="1" id="702">
                    <mxCell style="shape=partialRectangle;whiteSpace=wrap;html=1;shadow=0;comic=0;pointerEvents=1;strokeColor=#000000;strokeWidth=1;fontFamily=Helvetica;fontSize=12;fillColor=#FFFFFF;fontColor=#000000;" vertex="1" parent="1">
                        <mxGeometry x="70" y="1340" width="145" height="60" as="geometry"/>
                    </mxCell>
                </UserObject>
                <UserObject label="%Skill%&lt;hr&gt;%Level%" Skill="Critical Thinking" Level="15" Experience="120" placeholders="1" id="703">
                    <mxCell style="shape=partialRectangle;whiteSpace=wrap;html=1;shadow=0;comic=0;pointerEvents=1;strokeColor=#000000;strokeWidth=1;fontFamily=Helvetica;fontSize=12;fillColor=#FFFFFF;fontColor=#000000;" vertex="1" parent="1">
                        <mxGeometry x="70" y="1400" width="145" height="60" as="geometry"/>
                    </mxCell>
                </UserObject>
                <UserObject label="%Skill%&lt;hr&gt;%Level%" Skill="Learning Aptitude" Level="10" Experience="55" placeholders="1" id="704">
                    <mxCell style="shape=partialRectangle;whiteSpace=wrap;html=1;shadow=0;comic=0;pointerEvents=1;strokeColor=#000000;strokeWidth=1;fontFamily=Helvetica;fontSize=12;fillColor=#FFFFFF;fontColor=#000000;" vertex="1" parent="1">
                        <mxGeometry x="70" y="1460" width="145" height="60" as="geometry"/>
                    </mxCell>
                </UserObject>
                <UserObject label="%Skill%&lt;hr&gt;%Level%" Skill="Memory Retention" Level="7" Experience="28" placeholders="1" id="705">
                    <mxCell style="shape=partialRectangle;whiteSpace=wrap;html=1;shadow=0;comic=0;pointerEvents=1;strokeColor=#000000;strokeWidth=1;fontFamily=Helvetica;fontSize=12;fillColor=#FFFFFF;fontColor=#000000;" vertex="1" parent="1">
                        <mxGeometry x="70" y="1520" width="145" height="60" as="geometry"/>
                    </mxCell>
                </UserObject>
                <UserObject label="%Skill%&lt;hr&gt;%Level%" Skill="Cognitive Flexibility" Level="16" Experience="136" placeholders="1" id="706">
                    <mxCell style="shape=partialRectangle;whiteSpace=wrap;html=1;shadow=0;comic=0;pointerEvents=1;strokeColor=#000000;strokeWidth=1;fontFamily=Helvetica;fontSize=12;fillColor=#FFFFFF;fontColor=#000000;" vertex="1" parent="1">
                        <mxGeometry x="70" y="1580" width="145" height="60" as="geometry"/>
                    </mxCell>
                </UserObject>
                <UserObject label="%Skill%&lt;hr&gt;%Level%" Skill="Observation" Level="27" Experience="378" placeholders="1" id="707">
                    <mxCell style="shape=partialRectangle;whiteSpace=wrap;html=1;shadow=0;comic=0;pointerEvents=1;strokeColor=#000000;strokeWidth=1;fontFamily=Helvetica;fontSize=12;fillColor=#FFFFFF;fontColor=#000000;" vertex="1" parent="1">
                        <mxGeometry x="70" y="1640" width="145" height="60" as="geometry"/>
                    </mxCell>
                </UserObject>
                <UserObject label="%Skill%&lt;hr&gt;%Level%" Skill="Communication" Level="7" Experience="28" placeholders="1" id="708">
                    <mxCell style="shape=partialRectangle;whiteSpace=wrap;html=1;shadow=0;comic=0;pointerEvents=1;strokeColor=#000000;strokeWidth=1;fontFamily=Helvetica;fontSize=12;fillColor=#FFFFFF;fontColor=#000000;" vertex="1" parent="1">
                        <mxGeometry x="70" y="1700" width="145" height="60" as="geometry"/>
                    </mxCell>
                </UserObject>
                <UserObject label="%Skill%&lt;hr&gt;%Level%" Skill="Sociology" Level="10" Experience="55" placeholders="1" id="709">
                    <mxCell style="shape=partialRectangle;whiteSpace=wrap;html=1;shadow=0;comic=0;pointerEvents=1;strokeColor=#000000;strokeWidth=1;fontFamily=Helvetica;fontSize=12;fillColor=#FFFFFF;fontColor=#000000;" vertex="1" parent="1">
                        <mxGeometry x="70" y="1760" width="145" height="60" as="geometry"/>
                    </mxCell>
                </UserObject>
                <UserObject label="%Skill%&lt;hr&gt;%Level%" Skill="Vitality Enhancement" Level="8" Experience="36" placeholders="1" id="710">
                    <mxCell style="shape=partialRectangle;whiteSpace=wrap;html=1;shadow=0;comic=0;pointerEvents=1;strokeColor=#000000;strokeWidth=1;fontFamily=Helvetica;fontSize=12;fillColor=#FFFFFF;fontColor=#000000;" vertex="1" parent="1">
                        <mxGeometry x="70" y="1820" width="145" height="60" as="geometry"/>
                    </mxCell>
                </UserObject>
                <UserObject label="%Skill%&lt;hr&gt;%Level%" Skill="Flexibility Enhancement" Level="10" Experience="55" placeholders="1" id="711">
                    <mxCell style="shape=partialRectangle;whiteSpace=wrap;html=1;shadow=0;comic=0;pointerEvents=1;strokeColor=#000000;strokeWidth=1;fontFamily=Helvetica;fontSize=12;fillColor=#FFFFFF;fontColor=#000000;" vertex="1" parent="1">
                        <mxGeometry x="70" y="1880" width="145" height="60" as="geometry"/>
                    </mxCell>
                </UserObject>
                <UserObject label="%Skill%&lt;hr&gt;%Level%" Skill="Stamina Enhancement" Level="7" Experience="28" placeholders="1" id="712">
                    <mxCell style="shape=partialRectangle;whiteSpace=wrap;html=1;shadow=0;comic=0;pointerEvents=1;strokeColor=#000000;strokeWidth=1;fontFamily=Helvetica;fontSize=12;fillColor=#FFFFFF;fontColor=#000000;" vertex="1" parent="1">
                        <mxGeometry x="70" y="1940" width="145" height="60" as="geometry"/>
                    </mxCell>
                </UserObject>
                <UserObject label="%Skill%&lt;hr&gt;%Level%" Skill="Balance Enhancement" Level="6" Experience="21" placeholders="1" id="713">
                    <mxCell style="shape=partialRectangle;whiteSpace=wrap;html=1;shadow=0;comic=0;pointerEvents=1;strokeColor=#000000;strokeWidth=1;fontFamily=Helvetica;fontSize=12;fillColor=#FFFFFF;fontColor=#000000;" vertex="1" parent="1">
                        <mxGeometry x="70" y="2000" width="145" height="60" as="geometry"/>
                    </mxCell>
                </UserObject>
                <UserObject label="%Skill%&lt;hr&gt;%Level%" Skill="Pain Resistance" Level="17" Experience="153" placeholders="1" id="714">
                    <mxCell style="shape=partialRectangle;whiteSpace=wrap;html=1;shadow=0;comic=0;pointerEvents=1;strokeColor=#000000;strokeWidth=1;fontFamily=Helvetica;fontSize=12;fillColor=#FFFFFF;fontColor=#000000;" vertex="1" parent="1">
                        <mxGeometry x="70" y="2060" width="145" height="60" as="geometry"/>
                    </mxCell>
                </UserObject>
                <UserObject label="%Skill%&lt;hr&gt;%Level%" Skill="Stress Resistance" Level="31" Experience="496" placeholders="1" id="715">
                    <mxCell style="shape=partialRectangle;whiteSpace=wrap;html=1;shadow=0;comic=0;pointerEvents=1;strokeColor=#000000;strokeWidth=1;fontFamily=Helvetica;fontSize=12;fillColor=#FFFFFF;fontColor=#000000;" vertex="1" parent="1">
                        <mxGeometry x="70" y="2120" width="145" height="60" as="geometry"/>
                    </mxCell>
                </UserObject>
                <UserObject label="%Skill%&lt;hr&gt;%Level%" Skill="Sleep Resistance" Level="20" Experience="210" placeholders="1" id="716">
                    <mxCell style="shape=partialRectangle;whiteSpace=wrap;html=1;shadow=0;comic=0;pointerEvents=1;strokeColor=#000000;strokeWidth=1;fontFamily=Helvetica;fontSize=12;fillColor=#FFFFFF;fontColor=#000000;" vertex="1" parent="1">
                        <mxGeometry x="70" y="2180" width="145" height="60" as="geometry"/>
                    </mxCell>
                </UserObject>
                <UserObject label="%Skill%&lt;hr&gt;%Level%" Skill="Psi Resistance" Level="10" Experience="55" placeholders="1" id="717">
                    <mxCell style="shape=partialRectangle;whiteSpace=wrap;html=1;shadow=0;comic=0;pointerEvents=1;strokeColor=#000000;strokeWidth=1;fontFamily=Helvetica;fontSize=12;fillColor=#FFFFFF;fontColor=#000000;" vertex="1" parent="1">
                        <mxGeometry x="70" y="2240" width="145" height="60" as="geometry"/>
                    </mxCell>
                </UserObject>
                <UserObject label="%Skill%&lt;hr&gt;%Level%" Skill="Panic Resistance" Level="34" Experience="595" placeholders="1" id="718">
                    <mxCell style="shape=partialRectangle;whiteSpace=wrap;html=1;shadow=0;comic=0;pointerEvents=1;strokeColor=#000000;strokeWidth=1;fontFamily=Helvetica;fontSize=12;fillColor=#FFFFFF;fontColor=#000000;" vertex="1" parent="1">
                        <mxGeometry x="70" y="2300" width="145" height="60" as="geometry"/>
                    </mxCell>
                </UserObject>
                <UserObject label="%Skill%&lt;hr&gt;%Level%" Skill="Mind Over Matter" Level="18" Experience="171" placeholders="1" id="719">
                    <mxCell style="shape=partialRectangle;whiteSpace=wrap;html=1;shadow=0;comic=0;pointerEvents=1;strokeColor=#000000;strokeWidth=1;fontFamily=Helvetica;fontSize=12;fillColor=#FFFFFF;fontColor=#000000;" vertex="1" parent="1">
                        <mxGeometry x="70" y="2360" width="145" height="60" as="geometry"/>
                    </mxCell>
                </UserObject>
                <UserObject label="%Skill%&lt;hr&gt;%Level%" Skill="Fear Resistance" Level="19" Experience="190" placeholders="1" id="720">
                    <mxCell style="shape=partialRectangle;whiteSpace=wrap;html=1;shadow=0;comic=0;pointerEvents=1;strokeColor=#000000;strokeWidth=1;fontFamily=Helvetica;fontSize=12;fillColor=#FFFFFF;fontColor=#000000;" vertex="1" parent="1">
                        <mxGeometry x="70" y="2420" width="145" height="60" as="geometry"/>
                    </mxCell>
                </UserObject>
                <UserObject label="%Skill%&lt;hr&gt;%Level%" Skill="Despair Resistance" Level="22" Experience="253" placeholders="1" id="721">
                    <mxCell style="shape=partialRectangle;whiteSpace=wrap;html=1;shadow=0;comic=0;pointerEvents=1;strokeColor=#000000;strokeWidth=1;fontFamily=Helvetica;fontSize=12;fillColor=#FFFFFF;fontColor=#000000;" vertex="1" parent="1">
                        <mxGeometry x="70" y="2480" width="145" height="60" as="geometry"/>
                    </mxCell>
                </UserObject>
                <UserObject label="%Skill%&lt;hr&gt;%Level%" Skill="Grit" Level="19" Experience="190" placeholders="1" id="722">
                    <mxCell style="shape=partialRectangle;whiteSpace=wrap;html=1;shadow=0;comic=0;pointerEvents=1;strokeColor=#000000;strokeWidth=1;fontFamily=Helvetica;fontSize=12;fillColor=#FFFFFF;fontColor=#000000;" vertex="1" parent="1">
                        <mxGeometry x="70" y="2540" width="145" height="60" as="geometry"/>
                    </mxCell>
                </UserObject>
                <UserObject label="%Skill%&lt;hr&gt;%Level%" Skill="Tenacity" Level="14" Experience="105" placeholders="1" id="723">
                    <mxCell style="shape=partialRectangle;whiteSpace=wrap;html=1;shadow=0;comic=0;pointerEvents=1;strokeColor=#000000;strokeWidth=1;fontFamily=Helvetica;fontSize=12;fillColor=#FFFFFF;fontColor=#000000;" vertex="1" parent="1">
                        <mxGeometry x="215" y="1520" width="145" height="60" as="geometry"/>
                    </mxCell>
                </UserObject>
                <UserObject label="%Skill%&lt;hr&gt;%Level%" Skill="Perseverance" Level="15" Experience="120" placeholders="1" id="724">
                    <mxCell style="shape=partialRectangle;whiteSpace=wrap;html=1;shadow=0;comic=0;pointerEvents=1;strokeColor=#000000;strokeWidth=1;fontFamily=Helvetica;fontSize=12;fillColor=#FFFFFF;fontColor=#000000;" vertex="1" parent="1">
                        <mxGeometry x="215" y="1580" width="145" height="60" as="geometry"/>
                    </mxCell>
                </UserObject>
                <UserObject label="%Skill%&lt;hr&gt;%Level%" Skill="Fortitude" Level="17" Experience="153" placeholders="1" id="725">
                    <mxCell style="shape=partialRectangle;whiteSpace=wrap;html=1;shadow=0;comic=0;pointerEvents=1;strokeColor=#000000;strokeWidth=1;fontFamily=Helvetica;fontSize=12;fillColor=#FFFFFF;fontColor=#000000;" vertex="1" parent="1">
                        <mxGeometry x="215" y="1640" width="145" height="60" as="geometry"/>
                    </mxCell>
                </UserObject>
                <UserObject label="%Skill%&lt;hr&gt;%Level%" Skill="Determination" Level="16" Experience="136" placeholders="1" id="726">
                    <mxCell style="shape=partialRectangle;whiteSpace=wrap;html=1;shadow=0;comic=0;pointerEvents=1;strokeColor=#000000;strokeWidth=1;fontFamily=Helvetica;fontSize=12;fillColor=#FFFFFF;fontColor=#000000;" vertex="1" parent="1">
                        <mxGeometry x="215" y="1700" width="145" height="60" as="geometry"/>
                    </mxCell>
                </UserObject>
                <UserObject label="%Skill%&lt;hr&gt;%Level%" Skill="Patience" Level="14" Experience="105" placeholders="1" id="727">
                    <mxCell style="shape=partialRectangle;whiteSpace=wrap;html=1;shadow=0;comic=0;pointerEvents=1;strokeColor=#000000;strokeWidth=1;fontFamily=Helvetica;fontSize=12;fillColor=#FFFFFF;fontColor=#000000;" vertex="1" parent="1">
                        <mxGeometry x="215" y="1760" width="145" height="60" as="geometry"/>
                    </mxCell>
                </UserObject>
                <UserObject label="%Skill%&lt;hr&gt;%Level%" Skill="Self-Motivation" Level="12" Experience="78" placeholders="1" id="728">
                    <mxCell style="shape=partialRectangle;whiteSpace=wrap;html=1;shadow=0;comic=0;pointerEvents=1;strokeColor=#000000;strokeWidth=1;fontFamily=Helvetica;fontSize=12;fillColor=#FFFFFF;fontColor=#000000;" vertex="1" parent="1">
                        <mxGeometry x="215" y="1820" width="145" height="60" as="geometry"/>
                    </mxCell>
                </UserObject>
                <UserObject label="%Skill%&lt;hr&gt;%Level%" Skill="Focus Under Pressure" Level="11" Experience="66" placeholders="1" id="729">
                    <mxCell style="shape=partialRectangle;whiteSpace=wrap;html=1;shadow=0;comic=0;pointerEvents=1;strokeColor=#000000;strokeWidth=1;fontFamily=Helvetica;fontSize=12;fillColor=#FFFFFF;fontColor=#000000;" vertex="1" parent="1">
                        <mxGeometry x="215" y="1880" width="145" height="60" as="geometry"/>
                    </mxCell>
                </UserObject>
                <UserObject label="%Skill%&lt;hr&gt;%Level%" Skill="Concentration" Level="9" Experience="45" placeholders="1" id="730">
                    <mxCell style="shape=partialRectangle;whiteSpace=wrap;html=1;shadow=0;comic=0;pointerEvents=1;strokeColor=#000000;strokeWidth=1;fontFamily=Helvetica;fontSize=12;fillColor=#FFFFFF;fontColor=#000000;" vertex="1" parent="1">
                        <mxGeometry x="215" y="1940" width="145" height="60" as="geometry"/>
                    </mxCell>
                </UserObject>
                <UserObject label="%Skill%&lt;hr&gt;%Level%" Skill="Focus Enhancement" Level="8" Experience="36" placeholders="1" id="731">
                    <mxCell style="shape=partialRectangle;whiteSpace=wrap;html=1;shadow=0;comic=0;pointerEvents=1;strokeColor=#000000;strokeWidth=1;fontFamily=Helvetica;fontSize=12;fillColor=#FFFFFF;fontColor=#000000;" vertex="1" parent="1">
                        <mxGeometry x="215" y="2000" width="145" height="60" as="geometry"/>
                    </mxCell>
                </UserObject>
                <UserObject label="%Skill%&lt;hr&gt;%Level%" Skill="Meditation" Level="7" Experience="28" placeholders="1" id="732">
                    <mxCell style="shape=partialRectangle;whiteSpace=wrap;html=1;shadow=0;comic=0;pointerEvents=1;strokeColor=#000000;strokeWidth=1;fontFamily=Helvetica;fontSize=12;fillColor=#FFFFFF;fontColor=#000000;" vertex="1" parent="1">
                        <mxGeometry x="215" y="2060" width="145" height="60" as="geometry"/>
                    </mxCell>
                </UserObject>
                <UserObject label="%Skill%&lt;hr&gt;%Level%" Skill="Perceptual Speed" Level="5" Experience="15" placeholders="1" id="733">
                    <mxCell style="shape=partialRectangle;whiteSpace=wrap;html=1;shadow=0;comic=0;pointerEvents=1;strokeColor=#000000;strokeWidth=1;fontFamily=Helvetica;fontSize=12;fillColor=#FFFFFF;fontColor=#000000;" vertex="1" parent="1">
                        <mxGeometry x="215" y="2120" width="145" height="60" as="geometry"/>
                    </mxCell>
                </UserObject>
                <UserObject label="%Skill%&lt;hr&gt;%Level%" Skill="Problem Solving" Level="13" Experience="91" placeholders="1" id="734">
                    <mxCell style="shape=partialRectangle;whiteSpace=wrap;html=1;shadow=0;comic=0;pointerEvents=1;strokeColor=#000000;strokeWidth=1;fontFamily=Helvetica;fontSize=12;fillColor=#FFFFFF;fontColor=#000000;" vertex="1" parent="1">
                        <mxGeometry x="215" y="2180" width="145" height="60" as="geometry"/>
                    </mxCell>
                </UserObject>
                <UserObject label="%Skill%&lt;hr&gt;%Level%" Skill="Pattern Recognition" Level="18" Experience="171" placeholders="1" id="735">
                    <mxCell style="shape=partialRectangle;whiteSpace=wrap;html=1;shadow=0;comic=0;pointerEvents=1;strokeColor=#000000;strokeWidth=1;fontFamily=Helvetica;fontSize=12;fillColor=#FFFFFF;fontColor=#000000;" vertex="1" parent="1">
                        <mxGeometry x="215" y="2240" width="145" height="60" as="geometry"/>
                    </mxCell>
                </UserObject>
                <UserObject label="%Skill%&lt;hr&gt;%Level%" Skill="Intuition Enhancement" Level="22" Experience="253" placeholders="1" id="736">
                    <mxCell style="shape=partialRectangle;whiteSpace=wrap;html=1;shadow=0;comic=0;pointerEvents=1;strokeColor=#000000;strokeWidth=1;fontFamily=Helvetica;fontSize=12;fillColor=#FFFFFF;fontColor=#000000;" vertex="1" parent="1">
                        <mxGeometry x="215" y="2300" width="145" height="60" as="geometry"/>
                    </mxCell>
                </UserObject>
                <UserObject label="%Skill%&lt;hr&gt;%Level%" Skill="Creative Thinking" Level="28" Experience="406" placeholders="1" id="737">
                    <mxCell style="shape=partialRectangle;whiteSpace=wrap;html=1;shadow=0;comic=0;pointerEvents=1;strokeColor=#000000;strokeWidth=1;fontFamily=Helvetica;fontSize=12;fillColor=#FFFFFF;fontColor=#000000;" vertex="1" parent="1">
                        <mxGeometry x="215" y="2360" width="145" height="60" as="geometry"/>
                    </mxCell>
                </UserObject>
                <UserObject label="%Skill%&lt;hr&gt;%Level%" Skill="Mental Resilience Recovery" Level="27" Experience="378" placeholders="1" id="738">
                    <mxCell style="shape=partialRectangle;whiteSpace=wrap;html=1;shadow=0;comic=0;pointerEvents=1;strokeColor=#000000;strokeWidth=1;fontFamily=Helvetica;fontSize=12;fillColor=#FFFFFF;fontColor=#000000;" vertex="1" parent="1">
                        <mxGeometry x="215" y="2420" width="145" height="60" as="geometry"/>
                    </mxCell>
                </UserObject>
                <UserObject label="%Skill%&lt;hr&gt;%Level%" Skill="Clarity Restoration" Level="23" Experience="276" placeholders="1" id="739">
                    <mxCell style="shape=partialRectangle;whiteSpace=wrap;html=1;shadow=0;comic=0;pointerEvents=1;strokeColor=#000000;strokeWidth=1;fontFamily=Helvetica;fontSize=12;fillColor=#FFFFFF;fontColor=#000000;" vertex="1" parent="1">
                        <mxGeometry x="215" y="2480" width="145" height="60" as="geometry"/>
                    </mxCell>
                </UserObject>
                <UserObject label="%Skill%&lt;hr&gt;%Level%" Skill="Stress Recovery" Level="29" Experience="435" placeholders="1" id="740">
                    <mxCell style="shape=partialRectangle;whiteSpace=wrap;html=1;shadow=0;comic=0;pointerEvents=1;strokeColor=#000000;strokeWidth=1;fontFamily=Helvetica;fontSize=12;fillColor=#FFFFFF;fontColor=#000000;" vertex="1" parent="1">
                        <mxGeometry x="215" y="2540" width="145" height="60" as="geometry"/>
                    </mxCell>
                </UserObject>
                <UserObject label="%Skill%&lt;hr&gt;%Level%" Skill="Panic Recovery" Level="26" Experience="351" placeholders="1" id="741">
                    <mxCell style="shape=partialRectangle;whiteSpace=wrap;html=1;shadow=0;comic=0;pointerEvents=1;strokeColor=#000000;strokeWidth=1;fontFamily=Helvetica;fontSize=12;fillColor=#FFFFFF;fontColor=#000000;" vertex="1" parent="1">
                        <mxGeometry x="360" y="2360" width="145" height="60" as="geometry"/>
                    </mxCell>
                </UserObject>
                <UserObject label="%Skill%&lt;hr&gt;%Level%" Skill="Mind Stabilization" Level="21" Experience="231" placeholders="1" id="742">
                    <mxCell style="shape=partialRectangle;whiteSpace=wrap;html=1;shadow=0;comic=0;pointerEvents=1;strokeColor=#000000;strokeWidth=1;fontFamily=Helvetica;fontSize=12;fillColor=#FFFFFF;fontColor=#000000;" vertex="1" parent="1">
                        <mxGeometry x="360" y="2420" width="145" height="60" as="geometry"/>
                    </mxCell>
                </UserObject>
                <UserObject label="%Skill%&lt;hr&gt;%Level%" Skill="Mental Recovery" Level="17" Experience="153" placeholders="1" id="743">
                    <mxCell style="shape=partialRectangle;whiteSpace=wrap;html=1;shadow=0;comic=0;pointerEvents=1;strokeColor=#000000;strokeWidth=1;fontFamily=Helvetica;fontSize=12;fillColor=#FFFFFF;fontColor=#000000;" vertex="1" parent="1">
                        <mxGeometry x="360" y="2480" width="145" height="60" as="geometry"/>
                    </mxCell>
                </UserObject>
                <UserObject label="%Skill%&lt;hr&gt;%Level%" Skill="Begging" Level="6" Experience="21" placeholders="1" id="744">
                    <mxCell style="shape=partialRectangle;whiteSpace=wrap;html=1;shadow=0;comic=0;pointerEvents=1;strokeColor=#000000;strokeWidth=1;fontFamily=Helvetica;fontSize=12;fillColor=#FFFFFF;fontColor=#000000;" vertex="1" parent="1">
                        <mxGeometry x="505" y="2480" width="145" height="60" as="geometry"/>
                    </mxCell>
                </UserObject>
                <UserObject label="%Skill%&lt;hr&gt;%Level%" Skill="Emotional Healing" Level="10" Experience="55" placeholders="1" id="745">
                    <mxCell style="shape=partialRectangle;whiteSpace=wrap;html=1;shadow=0;comic=0;pointerEvents=1;strokeColor=#000000;strokeWidth=1;fontFamily=Helvetica;fontSize=12;fillColor=#FFFFFF;fontColor=#000000;" vertex="1" parent="1">
                        <mxGeometry x="505" y="2360" width="145" height="60" as="geometry"/>
                    </mxCell>
                </UserObject>
                <UserObject label="%Skill%&lt;hr&gt;%Level%" Skill="Creative Writing" Level="19" Experience="190" placeholders="1" id="746">
                    <mxCell style="shape=partialRectangle;whiteSpace=wrap;html=1;shadow=0;comic=0;pointerEvents=1;strokeColor=#000000;strokeWidth=1;fontFamily=Helvetica;fontSize=12;fillColor=#FFFFFF;fontColor=#000000;" vertex="1" parent="1">
                        <mxGeometry x="505" y="2420" width="145" height="60" as="geometry"/>
                    </mxCell>
                </UserObject>
            </root>
        </mxGraphModel>
    </diagram>
</mxfile>